<svg width="234" height="154" viewBox="0 0 234 154" fill="none" xmlns="http://www.w3.org/2000/svg">
<path d="M11.5554 25.5634C11.5554 18.9252 15.8868 13.5504 21.2256 13.5504L110.541 0H13.2678C5.93837 0 0 7.38299 0 16.4821V58.4799L11.5554 56.7876V25.5634Z" fill="#643066"/>
<path d="M11.5554 64.4625L0 66.1548V80.8136L11.5554 79.1212V64.4625Z" fill="#643066"/>
<path d="M222.445 97.8439V128.437C222.445 135.075 218.113 140.45 212.774 140.45L124.394 154H220.732C228.062 154 234 146.617 234 137.518V96.1576L222.445 97.8439Z" fill="#643066"/>
<path d="M11.5554 86.7963L0 88.4886V102.021L11.5554 100.329V86.7963Z" fill="#643066"/>
<path d="M84.4547 110.99L49.5847 38.72H68.8347L85.0047 76.89L101.505 38.72H120.315L85.5547 110.99H84.4547ZM155.767 110V52.8H136.957V38.72H191.847V52.8H173.147V110H155.767Z" fill="#643066"/>
</svg>
