<svg width="180" height="55" viewBox="0 0 180 55" fill="none" xmlns="http://www.w3.org/2000/svg">
<path d="M97.5252 23.2267L89.8027 7.22164H94.0659L97.647 15.6749L101.301 7.22164H105.467L97.7688 23.2267H97.5252ZM109.947 23.0075V7.22164H113.796V23.0075H109.947ZM118.981 15.1389C118.981 12.7516 119.761 10.7946 121.32 9.26795C122.895 7.74134 124.925 6.97803 127.41 6.97803C129.196 6.97803 130.666 7.3272 131.819 8.02555V11.7284C130.569 10.8677 129.164 10.4373 127.605 10.4373C126.257 10.4373 125.144 10.8758 124.267 11.7528C123.39 12.6298 122.952 13.7422 122.952 15.0902C122.952 16.5356 123.382 17.6806 124.243 18.5251C125.12 19.3534 126.265 19.7675 127.678 19.7675C129.334 19.7675 130.796 19.329 132.063 18.452V22.228C130.958 22.9101 129.432 23.2511 127.483 23.2511C124.884 23.2511 122.814 22.4878 121.271 20.9612C119.744 19.4346 118.981 17.4938 118.981 15.1389ZM137.538 23.0075V7.22164H141.387V13.4093H147.283V7.22164H151.132V23.0075H147.283V16.5519H141.387V23.0075H137.538ZM157.471 23.0075V7.22164H161.32V23.0075H157.471ZM170.403 23.0075V10.3398H166.238V7.22164H178.394V10.3398H174.253V23.0075H170.403Z" fill="white"/>
<path d="M121.426 46.015V30.2291H131.414V33.3473H125.275V36.4168H129.513V39.5106H125.275V42.8724H131.706V46.015H121.426Z" fill="white"/>
<path d="M106.787 46.015V33.3473H102.622V30.2291H114.778V33.3473H110.636V46.015H106.787Z" fill="white"/>
<path d="M137.789 38.1465C137.789 35.7591 138.569 33.8021 140.128 32.2755C141.703 30.7489 143.733 29.9856 146.218 29.9856C148.005 29.9856 149.474 30.3348 150.628 31.0331V34.736C149.377 33.8752 147.972 33.4448 146.413 33.4448C145.065 33.4448 143.953 33.8833 143.076 34.7603C142.199 35.6373 141.76 36.7498 141.76 38.0978C141.76 39.5432 142.191 40.6882 143.051 41.5327C143.928 42.3609 145.073 42.7751 146.486 42.7751C148.143 42.7751 149.604 42.3366 150.871 41.4596V45.2355C149.767 45.9176 148.24 46.2587 146.291 46.2587C143.693 46.2587 141.622 45.4954 140.079 43.9688C138.553 42.4421 137.789 40.5014 137.789 38.1465Z" fill="white"/>
<path d="M157.467 46.015V30.2291H161.316V36.4168H167.212V30.2291H171.061V46.015H167.212V39.5594H161.316V46.015H157.467Z" fill="white"/>
<path d="M3.90972 8.64927C3.90972 6.40326 5.37523 4.58472 7.18159 4.58472L37.4011 0H4.48911C2.00922 0 0 2.498 0 5.57665V19.7864L3.90972 19.2138V8.64927Z" fill="white"/>
<path d="M3.90972 21.8107L0 22.3833V27.343L3.90972 26.7704V21.8107Z" fill="white"/>
<path d="M75.2633 33.1051V43.4561C75.2633 45.7021 73.7976 47.5207 71.9912 47.5207L42.0882 52.1053H74.6838C77.1638 52.1053 79.1729 49.6073 79.1729 46.5287V32.5345L75.2633 33.1051Z" fill="white"/>
<path d="M3.90972 29.3672L0 29.9398V34.5184L3.90972 33.9459V29.3672Z" fill="white"/>
<path d="M28.5749 37.553L16.7768 13.1007H23.2899L28.761 26.0154L34.3438 13.1007H40.7081L28.9471 37.553H28.5749ZM52.7031 37.218V17.8646H46.3388V13.1007H64.9106V17.8646H58.5836V37.218H52.7031Z" fill="white"/>
</svg>
