<svg width="480" height="235" viewBox="0 0 480 235" fill="none" xmlns="http://www.w3.org/2000/svg">
<g clip-path="url(#clip0_3_9)">
<rect width="619" height="326" fill="#643066"/>
<g clip-path="url(#clip1_3_9)">
<rect width="350" height="171.719" transform="translate(65 32)" fill="#643066"/>
<path d="M415 39.6562H65V44.0312H415V39.6562Z" fill="#F7FCFC"/>
<path d="M415 178.562H65V182.938H415V178.562Z" fill="#F7FCFC"/>
<path d="M415 159.969H289.219V203.719H415V159.969Z" fill="#F7FCFC"/>
<path d="M321.642 190.594V175.806H316.779V172.166H330.969V175.806H326.135V190.594H321.642ZM335.589 190.594V172.166H347.249V175.806H340.082V179.389H345.031V183.001H340.082V186.925H347.59V190.594H335.589ZM351.053 181.408C351.053 178.622 351.963 176.337 353.783 174.555C355.621 172.773 357.992 171.882 360.892 171.882C362.977 171.882 364.693 172.29 366.039 173.105V177.427C364.579 176.422 362.94 175.92 361.12 175.92C359.546 175.92 358.247 176.432 357.224 177.456C356.2 178.479 355.688 179.778 355.688 181.352C355.688 183.039 356.19 184.376 357.195 185.361C358.219 186.328 359.556 186.812 361.205 186.812C363.139 186.812 364.845 186.3 366.324 185.276V189.684C365.034 190.48 363.253 190.878 360.978 190.878C357.943 190.878 355.526 189.987 353.726 188.205C351.943 186.423 351.053 184.157 351.053 181.408ZM371.578 190.594V172.166H376.071V179.389H382.953V172.166H387.446V190.594H382.953V183.058H376.071V190.594H371.578Z" fill="#643066"/>
<path d="M121.045 135.521L96.081 83.7825H109.862L121.438 111.109L133.251 83.7825H146.717L121.832 135.521H121.045ZM161.199 134.812V83.7825H173.642V134.812H161.199ZM190.404 109.376C190.404 101.659 192.924 95.3325 197.964 90.3975C203.056 85.4625 209.619 82.995 217.651 82.995C223.426 82.995 228.178 84.1237 231.905 86.3812V98.3512C227.863 95.5687 223.321 94.1775 218.281 94.1775C213.924 94.1775 210.328 95.595 207.493 98.43C204.658 101.265 203.24 104.861 203.24 109.219C203.24 113.891 204.631 117.592 207.414 120.322C210.249 123 213.95 124.339 218.518 124.339C223.873 124.339 228.598 122.921 232.693 120.086V132.292C229.123 134.497 224.188 135.6 217.888 135.6C209.488 135.6 202.794 133.132 197.806 128.197C192.871 123.262 190.404 116.989 190.404 109.376ZM250.393 134.812V83.7825H262.835V103.785H281.893V83.7825H294.335V134.812H281.893V113.944H262.835V134.812H250.393ZM314.829 134.812V83.7825H327.271V134.812H314.829ZM356.634 134.812V93.8625H343.168V83.7825H382.464V93.8625H369.077V134.812H356.634Z" fill="white"/>
</g>
</g>
<defs>
<clipPath id="clip0_3_9">
<rect width="480" height="235" fill="white"/>
</clipPath>
<clipPath id="clip1_3_9">
<rect width="350" height="171.719" fill="white" transform="translate(65 32)"/>
</clipPath>
</defs>
</svg>
