<svg width="337" height="136" viewBox="0 0 337 136" fill="none" xmlns="http://www.w3.org/2000/svg">
<rect width="90" height="31" transform="translate(247 46.5)" fill="white"/>
<path d="M271.034 70.5H266.791V58.2646H262.956V54.7949H274.858V58.2646H271.034V70.5ZM287.747 70.5H278.423V54.7949H287.747V58.2002H282.666V60.6709H287.371V64.0762H282.666V67.041H287.747V70.5ZM298.81 58.0498C298.309 58.0498 297.861 58.1572 297.468 58.3721C297.074 58.5798 296.737 58.8841 296.458 59.2852C296.179 59.6862 295.964 60.1768 295.813 60.7568C295.67 61.3298 295.598 61.9814 295.598 62.7119C295.598 63.7002 295.724 64.5309 295.974 65.2041C296.225 65.8773 296.605 66.3857 297.113 66.7295C297.629 67.0732 298.273 67.2451 299.047 67.2451C299.749 67.2451 300.422 67.1484 301.066 66.9551C301.718 66.7617 302.373 66.529 303.032 66.2568V69.8447C302.337 70.1527 301.625 70.3747 300.894 70.5107C300.171 70.6468 299.401 70.7148 298.585 70.7148C296.88 70.7148 295.484 70.3783 294.395 69.7051C293.314 69.0247 292.515 68.083 292 66.8799C291.491 65.6768 291.237 64.2803 291.237 62.6904C291.237 61.5016 291.402 60.4131 291.731 59.4248C292.068 58.4365 292.558 57.5807 293.203 56.8574C293.847 56.127 294.642 55.5648 295.588 55.1709C296.54 54.7699 297.629 54.5693 298.853 54.5693C299.612 54.5693 300.411 54.6589 301.249 54.8379C302.094 55.0098 302.917 55.2891 303.72 55.6758L302.42 59.0166C301.847 58.7445 301.267 58.5153 300.68 58.3291C300.092 58.1429 299.469 58.0498 298.81 58.0498ZM320.884 70.5H316.62V64.0977H311.689V70.5H307.424V54.7949H311.689V60.6172H316.62V54.7949H320.884V70.5Z" fill="#643066"/>
<path d="M21.3253 88.576L1.03725 46.528H12.2373L21.6453 68.736L31.2453 46.528H42.1893L21.9653 88.576H21.3253ZM53.9588 88V46.528H64.0708V88H53.9588ZM77.6933 67.328C77.6933 61.056 79.7413 55.9147 83.8373 51.904C87.9759 47.8933 93.3093 45.888 99.8373 45.888C104.531 45.888 108.392 46.8053 111.421 48.64V58.368C108.136 56.1067 104.445 54.976 100.349 54.976C96.8079 54.976 93.8853 56.128 91.5813 58.432C89.2773 60.736 88.1253 63.6587 88.1253 67.2C88.1253 70.9973 89.2559 74.0053 91.5173 76.224C93.8213 78.4 96.8293 79.488 100.541 79.488C104.893 79.488 108.733 78.336 112.061 76.032V85.952C109.16 87.744 105.149 88.64 100.029 88.64C93.2026 88.64 87.7626 86.6347 83.7093 82.624C79.6986 78.6133 77.6933 73.5147 77.6933 67.328ZM126.446 88V46.528H136.558V62.784H152.046V46.528H162.158V88H152.046V71.04H136.558V88H126.446ZM178.814 88V46.528H188.926V88H178.814ZM212.788 88V54.72H201.844V46.528H233.78V54.72H222.9V88H212.788Z" fill="white"/>
</svg>
