<svg width="532" height="160" viewBox="0 0 532 160" fill="none" xmlns="http://www.w3.org/2000/svg">
<path d="M288.241 68.648L265.417 21.344H278.017L288.601 46.328L299.401 21.344H311.713L288.961 68.648H288.241ZM324.954 68V21.344H336.33V68H324.954ZM351.655 44.744C351.655 37.688 353.959 31.904 358.567 27.392C363.223 22.88 369.223 20.624 376.567 20.624C381.847 20.624 386.191 21.656 389.599 23.72V34.664C385.903 32.12 381.751 30.848 377.143 30.848C373.159 30.848 369.871 32.144 367.279 34.736C364.687 37.328 363.391 40.616 363.391 44.6C363.391 48.872 364.663 52.256 367.207 54.752C369.799 57.2 373.183 58.424 377.359 58.424C382.255 58.424 386.575 57.128 390.319 54.536V65.696C387.055 67.712 382.543 68.72 376.783 68.72C369.103 68.72 362.983 66.464 358.423 61.952C353.911 57.44 351.655 51.704 351.655 44.744ZM406.502 68V21.344H417.878V39.632H435.302V21.344H446.678V68H435.302V48.92H417.878V68H406.502ZM465.415 68V21.344H476.791V68H465.415ZM503.637 68V30.56H491.325V21.344H527.253V30.56H515.013V68H503.637Z" fill="white"/>
<path d="M358.88 136V89.344H388.4V98.56H370.256V107.632H382.784V116.776H370.256V126.712H389.264V136H358.88Z" fill="white"/>
<path d="M315.616 136V98.56H303.304V89.344H339.232V98.56H326.992V136H315.616Z" fill="white"/>
<path d="M407.244 112.744C407.244 105.688 409.548 99.904 414.156 95.392C418.812 90.88 424.812 88.624 432.156 88.624C437.436 88.624 441.78 89.656 445.188 91.72V102.664C441.492 100.12 437.34 98.848 432.732 98.848C428.748 98.848 425.46 100.144 422.868 102.736C420.276 105.328 418.98 108.616 418.98 112.6C418.98 116.872 420.252 120.256 422.796 122.752C425.388 125.2 428.772 126.424 432.948 126.424C437.844 126.424 442.164 125.128 445.908 122.536V133.696C442.644 135.712 438.132 136.72 432.372 136.72C424.692 136.72 418.572 134.464 414.012 129.952C409.5 125.44 407.244 119.704 407.244 112.744Z" fill="white"/>
<path d="M465.403 136V89.344H476.779V107.632H494.203V89.344H505.579V136H494.203V116.92H476.779V136H465.403Z" fill="white"/>
<path d="M11.5554 25.5634C11.5554 18.9252 15.8868 13.5504 21.2256 13.5504L110.541 0H13.2678C5.93837 0 0 7.38299 0 16.4821V58.4799L11.5554 56.7876V25.5634Z" fill="white"/>
<path d="M11.5554 64.4625L0 66.1548V80.8135L11.5554 79.1212V64.4625Z" fill="white"/>
<path d="M222.445 97.8439V128.437C222.445 135.075 218.113 140.45 212.774 140.45L124.394 154H220.732C228.062 154 234 146.617 234 137.518V96.1576L222.445 97.8439Z" fill="white"/>
<path d="M11.5554 86.7962L0 88.4885V102.021L11.5554 100.329V86.7962Z" fill="white"/>
<path d="M84.4547 110.99L49.5847 38.72H68.8347L85.0047 76.89L101.505 38.72H120.315L85.5547 110.99H84.4547ZM155.767 110V52.8H136.957V38.72H191.847V52.8H173.147V110H155.767Z" fill="white"/>
</svg>
