<svg width="400" height="200" viewBox="0 0 400 200" fill="none" xmlns="http://www.w3.org/2000/svg">
<path d="M100.241 90.648L77.4169 43.344H90.0169L100.601 68.328L111.401 43.344H123.713L100.961 90.648H100.241ZM136.954 90V43.344H148.33V90H136.954ZM163.655 66.744C163.655 59.688 165.959 53.904 170.567 49.392C175.223 44.88 181.223 42.624 188.567 42.624C193.847 42.624 198.191 43.656 201.599 45.72V56.664C197.903 54.12 193.751 52.848 189.143 52.848C185.159 52.848 181.871 54.144 179.279 56.736C176.687 59.328 175.391 62.616 175.391 66.6C175.391 70.872 176.663 74.256 179.207 76.752C181.799 79.2 185.183 80.424 189.359 80.424C194.255 80.424 198.575 79.128 202.319 76.536V87.696C199.055 89.712 194.543 90.72 188.783 90.72C181.103 90.72 174.983 88.464 170.423 83.952C165.911 79.44 163.655 73.704 163.655 66.744ZM218.502 90V43.344H229.878V61.632H247.302V43.344H258.678V90H247.302V70.92H229.878V90H218.502ZM277.415 90V43.344H288.791V90H277.415ZM315.637 90V52.56H303.325V43.344H339.253V52.56H327.013V90H315.637Z" fill="#643066"/>
<path d="M170.88 158V111.344H200.4V120.56H182.256V129.632H194.784V138.776H182.256V148.712H201.264V158H170.88Z" fill="#643066"/>
<path d="M127.616 158V120.56H115.304V111.344H151.232V120.56H138.992V158H127.616Z" fill="#643066"/>
<path d="M219.244 134.744C219.244 127.688 221.548 121.904 226.156 117.392C230.812 112.88 236.812 110.624 244.156 110.624C249.436 110.624 253.78 111.656 257.188 113.72V124.664C253.492 122.12 249.34 120.848 244.732 120.848C240.748 120.848 237.46 122.144 234.868 124.736C232.276 127.328 230.98 130.616 230.98 134.6C230.98 138.872 232.252 142.256 234.796 144.752C237.388 147.2 240.772 148.424 244.948 148.424C249.844 148.424 254.164 147.128 257.908 144.536V155.696C254.644 157.712 250.132 158.72 244.372 158.72C236.692 158.72 230.572 156.464 226.012 151.952C221.5 147.44 219.244 141.704 219.244 134.744Z" fill="#643066"/>
<path d="M277.403 158V111.344H288.779V129.632H306.203V111.344H317.579V158H306.203V138.92H288.779V158H277.403Z" fill="#643066"/>
<path d="M19.7528 33.1992C19.7528 24.5782 27.157 17.5979 36.2831 17.5979L188.959 0H22.68C10.1511 0 0 9.5883 0 21.4054V75.948L19.7528 73.7502V33.1992Z" fill="#643066"/>
<path d="M19.7528 83.7177L0 85.9155V104.953L19.7528 102.755V83.7177Z" fill="#643066"/>
<path d="M380.247 127.07V166.801C380.247 175.422 372.843 182.402 363.717 182.402L212.64 200H377.32C389.849 200 400 190.412 400 178.595V124.88L380.247 127.07Z" fill="#643066"/>
<path d="M19.7528 112.722L0 114.92V132.495L19.7528 130.297V112.722Z" fill="#643066"/>
</svg>
