<svg width="320" height="157" viewBox="0 0 320 157" fill="none" xmlns="http://www.w3.org/2000/svg">
<path d="M320 7H0V11H320V7Z" fill="#F7FCFC"/>
<path d="M320 134H0V138H320V134Z" fill="#F7FCFC"/>
<path d="M320 117H205V157H320V117Z" fill="#F7FCFC"/>
<path d="M234.644 145V131.48H230.198V128.152H243.172V131.48H238.752V145H234.644ZM247.396 145V128.152H258.056V131.48H251.504V134.756H256.028V138.058H251.504V141.646H258.368V145H247.396ZM261.534 136.602C261.534 134.054 262.366 131.965 264.03 130.336C265.711 128.707 267.878 127.892 270.53 127.892C272.436 127.892 274.005 128.265 275.236 129.01V132.962C273.901 132.043 272.402 131.584 270.738 131.584C269.299 131.584 268.112 132.052 267.176 132.988C266.24 133.924 265.772 135.111 265.772 136.55C265.772 138.093 266.231 139.315 267.15 140.216C268.086 141.1 269.308 141.542 270.816 141.542C272.584 141.542 274.144 141.074 275.496 140.138V144.168C274.317 144.896 272.688 145.26 270.608 145.26C267.834 145.26 265.624 144.445 263.978 142.816C262.348 141.187 261.534 139.115 261.534 136.602ZM280.3 145V128.152H284.408V134.756H290.7V128.152H294.808V145H290.7V138.11H284.408V145H280.3Z" fill="#643066"/>
<path d="M51.2409 94.648L28.4169 47.344H41.0169L51.6009 72.328L62.4009 47.344H74.7129L51.9609 94.648H51.2409ZM87.9536 94V47.344H99.3296V94H87.9536ZM114.655 70.744C114.655 63.688 116.959 57.904 121.567 53.392C126.223 48.88 132.223 46.624 139.567 46.624C144.847 46.624 149.191 47.656 152.599 49.72V60.664C148.903 58.12 144.751 56.848 140.143 56.848C136.159 56.848 132.871 58.144 130.279 60.736C127.687 63.328 126.391 66.616 126.391 70.6C126.391 74.872 127.663 78.256 130.207 80.752C132.799 83.2 136.183 84.424 140.359 84.424C145.255 84.424 149.575 83.128 153.319 80.536V91.696C150.055 93.712 145.543 94.72 139.783 94.72C132.103 94.72 125.983 92.464 121.423 87.952C116.911 83.44 114.655 77.704 114.655 70.744ZM169.502 94V47.344H180.878V65.632H198.302V47.344H209.678V94H198.302V74.92H180.878V94H169.502ZM228.415 94V47.344H239.791V94H228.415ZM266.637 94V56.56H254.325V47.344H290.253V56.56H278.013V94H266.637Z" fill="white"/>
</svg>
