<svg xmlns="http://www.w3.org/2000/svg" xmlns:xlink="http://www.w3.org/1999/xlink" version="1.1" id="Livello_1" x="0px" y="0px" viewBox="0 0 80 80" style="enable-background:new 0 0 80 80;" xml:space="preserve">
<g>
	<g>
		<path d="M39.5,37.4c-5.8,0-10.6-4.7-10.6-10.6s4.8-10.6,10.6-10.6s10.6,4.7,10.6,10.6S45.3,37.4,39.5,37.4 M60.6,22.5    h-4.1c-0.5-1.7-1-3.2-1.9-4.7l2.9-2.9c0.5-0.5,0.5-1.3,0-1.7l-4.3-4.3c-0.5-0.5-1.3-0.5-1.7,0l-2.9,2.9c-1.5-0.9-3-1.5-4.7-1.9    V5.6c0-0.7-0.6-1.3-1.3-1.3h-6.2c-0.7,0-1.3,0.6-1.3,1.3v4.1c-1.7,0.5-3.2,1-4.7,1.9l-2.9-2.9c-0.5-0.5-1.3-0.5-1.7,0l-4.5,4.3    c-0.5,0.5-0.5,1.3,0,1.7l2.9,2.9c-0.9,1.5-1.5,3-1.9,4.7h-4.1c-0.7,0-1.3,0.6-1.3,1.3v6.2c0,0.7,0.6,1.3,1.3,1.3h4.1    c0.5,1.7,1,3.2,1.9,4.7l-2.9,2.9c-0.5,0.5-0.5,1.3,0,1.7l4.3,4.3c0.5,0.5,1.3,0.5,1.7,0l2.9-2.9c1.5,0.9,3,1.5,4.7,1.9v4    c0,0.7,0.6,1.3,1.3,1.3h6.2c0.7,0,1.3-0.6,1.3-1.3v-4c1.7-0.5,3.2-1,4.7-1.9l2.9,2.9c0.5,0.5,1.3,0.5,1.7,0l4.3-4.3    c0.5-0.5,0.5-1.3,0-1.7l-2.9-2.9c0.9-1.5,1.5-3,1.9-4.7h4.1c0.7,0,1.3-0.6,1.3-1.3v-6.2C61.9,23,61.3,22.5,60.6,22.5"/>
	</g>
	<g>
		<path d="M39.5,17.2c-5.3,0-9.6,4.3-9.6,9.6s4.3,9.6,9.6,9.6s9.6-4.3,9.6-9.6C49.1,21.5,44.7,17.2,39.5,17.2     M39.5,38.4c-6.4,0-11.6-5.1-11.6-11.6s5.3-11.6,11.6-11.6S51,20.4,51,26.9C51,33.1,45.9,38.4,39.5,38.4 M30.2,40.7l0.7,0.3    c1.4,0.8,2.9,1.5,4.5,1.8l0.8,0.2v4.8c0,0.1,0.1,0.2,0.2,0.2h6.2c0.1,0,0.2-0.1,0.2-0.2v-4.8l0.8-0.2c1.6-0.3,3.1-1,4.5-1.8    l0.7-0.3l3.4,3.4h0.3l4.3-4.3v-0.3L53.4,36l0.3-0.7c0.8-1.4,1.4-2.9,1.8-4.5l0.2-0.8h4.8c0.1,0,0.2-0.1,0.2-0.2v-6.2    c0-0.1-0.1-0.2-0.2-0.2h-4.8l-0.2-0.8c-0.3-1.6-1-3.1-1.8-4.5l-0.3-0.7l3.4-3.4c0.1-0.1,0.1-0.2,0-0.3l-4.3-4.3h-0.3l-3.4,3.4    l-0.8-0.3c-1.4-0.8-2.9-1.5-4.5-1.8l-0.8-0.2V5.6c0-0.1-0.1-0.2-0.2-0.2h-6.2c-0.1,0-0.2,0.1-0.2,0.2v4.8l-0.7,0.2    c-1.6,0.3-3.1,1-4.5,1.8l-0.7,0.3l-3.4-3.4c-0.1-0.1-0.2-0.1-0.3,0l-4.3,4.3c-0.1,0.1-0.1,0.2,0,0.3l3.4,3.4L25,18.3    c-0.8,1.4-1.4,2.9-1.8,4.5l-0.1,0.7h-4.9c-0.1,0-0.2,0.1-0.2,0.2v6.2c0,0.1,0.1,0.2,0.2,0.2H23l0.2,0.8c0.5,1.6,1,3.1,1.8,4.5    l0.3,0.7L22,39.4c-0.1,0.1-0.1,0.2,0,0.3l4.3,4.3c0.1,0.1,0.2,0.1,0.3,0L30.2,40.7z M42.5,50.2h-6.2c-1.3,0-2.3-1-2.3-2.3v-3.3    c-1.3-0.3-2.4-0.8-3.5-1.5l-2.4,2.3c-0.8,0.8-2.3,0.8-3.2,0L20.6,41c-0.5-0.5-0.7-1-0.7-1.6c0-0.6,0.2-1.1,0.7-1.6l2.4-2.3    c-0.6-1.1-1.1-2.3-1.5-3.5h-3.3c-1.3,0-2.3-1-2.3-2.2v-6.2c0-1.3,1-2.3,2.3-2.3h3.3c0.3-1.3,0.8-2.4,1.5-3.5l-2.4-2.3    c-0.9-0.9-0.9-2.3,0-3.2L24.9,8c0.8-0.8,2.3-0.8,3.2,0l2.4,2.3c1.1-0.6,2.3-1.1,3.5-1.5V5.6c0-1.3,1-2.3,2.3-2.3h6.2    c1.3,0,2.3,1,2.3,2.3v3.3c1.3,0.3,2.4,0.8,3.5,1.5l2.3-2.3c0.8-0.8,2.3-0.8,3.2,0l4.3,4.3c0.9,0.9,0.9,2.3,0,3.2l-2.4,2.3    c0.6,1.1,1.1,2.3,1.5,3.5h3.3c1.3,0,2.3,1,2.3,2.3v6.2c0,1.3-1,2.2-2.3,2.2h-3.3c-0.3,1.3-0.8,2.4-1.5,3.5l2.4,2.3    c0.5,0.5,0.7,1,0.7,1.6c0,0.6-0.2,1.1-0.7,1.6l-4.3,4.3c-0.8,0.8-2.3,0.8-3.2,0l-2.3-2.3c-1.1,0.6-2.3,1.1-3.5,1.5V48    C44.7,49.2,43.8,50.2,42.5,50.2"/>
	</g>
	<g>
		<path d="M74,29.8c-0.6-6.1-7.1-5.3-7.6-0.6c-0.1,1.6-2.1,14.3-1.6,14.3c0.8,0.1,1.6,0.5,2.2,1.1s0.8,1.5,0.7,2.4    c-0.9,4.1-12.1,8.7-13.4,9.3c-0.1,0-0.2,0.1-0.3,0.1c-0.3,0-0.7-0.2-0.8-0.6c-0.2-0.5,0-0.9,0.5-1.1c4.5-1.8,11.8-5.6,12.4-8    c0.1-0.3,0-0.6-0.2-0.9c-0.8-0.9-2.4-0.8-4.2-0.2c-3,1.7-5.8,3.4-7.9,4.5c-0.3,0.1-2.1,0.9-2.7,1.3c-5.5,2.5-8.6,3.8-8.8,7.8    C41.7,63.7,42,74.8,42,74.8l16.9-0.1V64.1l10.3-7.1c3-2.1,4.7-5.3,4.8-8.8C74.2,42.5,74.5,33.7,74,29.8"/>
	</g>
	<g>
		<path d="M4.8,29.8c0.6-6.1,7.1-5.3,7.6-0.6c0.1,1.6,2.1,14.3,1.6,14.3c-0.8,0.1-1.6,0.5-2.2,1.1    c-0.6,0.7-0.8,1.5-0.7,2.4c0.9,4.1,12.1,8.7,13.4,9.3c0.1,0,0.2,0.1,0.3,0.1c0.3,0,0.7-0.2,0.8-0.6c0.2-0.5,0-0.9-0.5-1.1    c-4.5-1.8-11.8-5.6-12.4-8c-0.1-0.3,0-0.6,0.2-0.9c0.8-0.9,2.4-0.8,4.2-0.2c3,1.7,5.8,3.4,7.9,4.5c0.3,0.1,2.1,0.9,2.7,1.3    c5.5,2.5,8.6,3.8,8.8,7.8c0.3,4.6,0.1,15.7,0.1,15.7l-16.9-0.1V64.1L9.6,57.1c-3-2.1-4.7-5.3-4.8-8.8C4.7,42.5,4.5,33.7,4.8,29.8"/>
	</g>
</g>
</svg>