<svg width="104" height="36" viewBox="0 0 104 36" fill="none" xmlns="http://www.w3.org/2000/svg">
<path fill-rule="evenodd" clip-rule="evenodd" d="M12.2603 0H17.951V26.0824C15.0361 26.6338 12.8901 26.8507 10.5685 26.8507C3.61803 26.8435 0 23.7383 0 17.7747C0 12.0288 3.83775 8.29971 9.78479 8.29971C10.7076 8.29971 11.4107 8.37226 12.2603 8.58991V0ZM12.2603 13.1243C11.5938 12.9066 11.0445 12.8341 10.3414 12.8341C7.4631 12.8341 5.80056 14.5898 5.80056 17.6666C5.80056 20.6622 7.38986 22.3164 10.3048 22.3164C10.9346 22.3164 11.4473 22.2808 12.2603 22.172V13.1243ZM26.9961 8.69874V21.7577C26.9961 26.2551 26.6592 28.4178 25.6704 30.2823C24.7476 32.075 23.5318 33.2054 21.0197 34.454L15.7392 31.9655C18.2513 30.7982 19.467 29.7665 20.2434 28.1922C21.0563 26.5823 21.3127 24.7178 21.3127 19.8134V8.69874H26.9961ZM21.3127 0.0290198H27.0034V5.81125H21.3127V0.0290198ZM30.4303 9.98287C32.9431 8.81482 35.3454 8.29971 37.9673 8.29971C40.8896 8.29971 42.8077 9.06874 43.658 10.5705C44.1341 11.4121 44.2879 12.5076 44.2879 14.851V26.2993C41.7399 26.6621 38.5239 26.9226 36.1649 26.9226C31.397 26.9226 29.2584 25.2757 29.2584 21.6199C29.2584 17.6659 32.1008 15.8376 39.0798 15.2565V14.0159C39.0798 12.993 38.5598 12.623 37.1243 12.623C35.0224 12.623 32.6567 13.2106 30.4376 14.3424L30.4303 9.98287ZM39.3362 18.9421C35.5717 19.3048 34.3486 19.8932 34.3486 21.358C34.3486 22.4549 35.0517 22.9693 36.6043 22.9693C37.4539 22.9693 38.2303 22.8968 39.3354 22.7154V18.9421H39.3362ZM47.0563 9.57659C50.418 8.69874 53.1857 8.29971 55.9908 8.29971C58.9057 8.29971 61.0158 8.95992 62.2674 10.2368C63.4459 11.4411 63.8208 12.7615 63.8208 15.5765V26.6258H58.1294V15.8014C58.1294 13.6394 57.3897 12.8341 55.3617 12.8341C54.5846 12.8341 53.8823 12.9066 52.7397 13.2404V26.6265H47.0563V9.57659ZM66.0327 29.7012C68.0241 30.7242 70.0169 31.1965 72.1262 31.1965C75.8541 31.1965 77.4434 29.6947 77.4434 26.1107V26.0019C76.3375 26.546 75.2235 26.7716 73.7514 26.7716C68.7645 26.7716 65.5932 23.5142 65.5932 18.3559C65.5932 11.9497 70.2879 8.32946 78.5932 8.32946C81.0321 8.32946 83.2879 8.58338 86.019 9.13476L84.0708 13.1976C82.5562 12.9074 83.9463 13.154 82.8045 13.0452V13.6329L82.8777 16.0125L82.9136 19.0886C82.951 19.8584 82.951 20.6259 82.9883 21.3957V22.933C82.9883 27.7649 82.5775 30.0291 81.3617 31.9009C79.5893 34.6426 76.5213 36 72.1621 36C69.9437 36 68.0241 35.6728 66.0327 34.903V29.7012ZM77.3335 12.8704H77.1504H76.7395C75.6336 12.8341 74.338 13.1243 73.4511 13.6757C72.0896 14.4447 71.3872 15.8376 71.3872 17.811C71.3872 20.6252 72.7934 22.2366 75.3055 22.2366C76.0811 22.2366 76.7117 22.0922 77.4441 21.8738V21.4668V19.9295C77.4441 19.2693 77.4068 18.5365 77.4068 17.7675L77.3709 15.1702L77.3335 13.3057V12.8704ZM94.8451 8.22716C100.528 8.22716 104 11.7749 104 17.5208C104 23.4119 100.383 27.1039 94.6173 27.1039C88.9266 27.1039 85.4177 23.557 85.4177 17.848C85.4272 11.92 89.0445 8.22716 94.8451 8.22716ZM94.7279 22.5623C96.9104 22.5623 98.1994 20.771 98.1994 17.6587C98.1994 14.5825 96.9463 12.7543 94.7652 12.7543C92.5095 12.7543 91.219 14.5463 91.219 17.6587C91.219 20.771 92.5161 22.5623 94.7279 22.5623Z" fill="#333333"/>
</svg>
