<svg width="300" height="386" viewBox="0 0 300 386" fill="none" xmlns="http://www.w3.org/2000/svg">
<g clip-path="url(#clip0_21_45)">
<path d="M89.6495 238.302C78.2238 229.314 66.0328 220.7 57.7042 208.563C40.1718 187.16 26.6765 162.386 17.4503 136.346C11.8722 119.413 9.96205 101.259 2.76674 84.9832C-4.74967 73.1578 4.06166 60.2402 17.0132 56.4832C22.7753 55.3722 32.9132 49.9324 20.6753 53.8254C9.7019 61.8715 8.64486 46.5129 19.8949 45.5402C27.573 44.5218 30.3996 38.2394 27.771 32.584C19.5257 27.205 47.7574 21.3035 33.5507 13.2797C18.7617 -2.68129 54.246 -5.75394 45.4898 12.3761C43.3968 26.3156 70.2937 9.81559 64.0476 25.916C70.3933 33.6492 87.8038 27.6797 87.3667 38.5218C96.6081 39.157 99.7804 46.9277 108.446 47.5254C117.443 51.5871 133.735 54.7816 136.792 64.9125C127.874 71.9707 107.229 50.3308 106.232 69.8718C108.929 98.7445 108.241 128.486 118.801 155.979C123.796 172.624 135.91 185.727 146.845 198.694C157.314 211.39 171.49 220.334 185.943 227.858C198.616 233.835 212.28 237.796 226.097 240.287C231.698 236.003 241.59 220.072 250.325 226.785C250.747 234.342 232.986 242.571 249.492 241.736C259.193 238.808 265.914 249.229 273.898 239.827C281.255 248.541 304.472 234.264 299.239 252.073C292.159 256.641 281.837 253.881 274.75 260.166C263.064 254.326 253.759 265.384 240.817 263.989C226.45 266.563 211.827 267.599 197.262 267.62C173.36 265.734 148.955 264.939 126.218 256.616C113.406 252.894 100.908 245.598 89.6495 238.302V238.302ZM109.834 247.054C122.34 252.456 134.571 258.157 148.28 259.881C170.027 262.901 192.486 267.559 214.31 263.314C204.434 258.855 194.218 265.046 184.379 260.127C172.578 262.663 159.913 259.475 147.91 257.904C134.27 251.829 119.544 247.652 106.769 239.757C90.7992 233.927 115.023 247.237 119.337 248.319C129.314 253.979 108.362 245.413 105.403 243.061C97.0453 238.371 95.9812 239.352 104.578 244.111C106.309 245.123 108.019 246.189 109.834 247.054V247.054ZM86.0331 230.234C98.1562 234.724 85.9792 221.712 80.4316 222.464C77.9706 218.195 71.0296 215.497 75.9257 213.206C67.1214 216.265 66.6996 201.581 62.5628 203.682C53.2441 200.74 58.9371 190.317 47.8335 183.913C46.821 177.168 36.8062 171.321 33.6187 161.152C32.2089 155.941 22.3007 140.992 28.3851 154.905C33.5648 168.3 42.6761 179.781 50.2628 191.237C56.148 202.147 63.1066 213.559 73.8269 220.364C77.4445 223.835 80.9296 229.145 86.032 230.234H86.0331ZM51.1218 191.896C51.5413 190.064 53.3367 195.857 51.1218 191.896V191.896ZM100.555 235.612C103.236 234.41 96.6925 234.096 100.555 235.612V235.612ZM107.129 238.012C106.448 234.701 104.126 239.866 107.129 238.012V238.012ZM115.368 241.446C119.283 237.711 109.321 239.091 115.368 241.446V241.446ZM129.483 249.313C131.865 245.796 121.857 247.989 129.483 249.313V249.313ZM102.38 230.419C108.462 226.479 94.5093 230.364 102.38 230.419V230.419ZM108.555 233.498C108.378 231.421 106.356 234.432 108.555 233.498V233.498ZM139.428 252.77C144.394 255.905 168.418 259.636 153.376 254.057C150.853 254.586 125.482 246.877 139.428 252.77V252.77ZM90.4171 214.594C89.9343 212.511 82.7062 212.287 90.4171 214.594V214.594ZM104.784 222.979C108.531 220.365 97.0218 220.963 104.784 222.979V222.979ZM116.876 230.388C122.248 228.366 108.172 228.357 116.876 230.388V230.388ZM84.5624 208.226C90.3867 212.692 108.059 208.8 93.4816 205.56C86.8535 202.027 71.9109 199.607 82.0968 207.69L84.5624 208.226ZM125.069 232.946C127.498 228.816 114.892 230.585 125.069 232.946V232.946ZM112.761 223.167C127 227.191 100.785 214.155 109.246 221.681L111.124 222.532L112.761 223.167ZM137.439 237.429C150.925 237.558 125.253 235.568 137.439 237.429V237.429ZM79.3757 200.423C78.846 197.911 76.0499 200.632 79.3757 200.423V200.423ZM160.25 250.226C160.61 245.691 155.851 253.605 160.25 250.226V250.226ZM102.395 214.516C101.575 212.126 98.1808 214.417 102.395 214.516V214.516ZM80.6542 198.846C88.3956 198.38 70.0488 195.436 80.6542 198.846V198.846ZM54.8988 182.201C53.9343 178.486 46.4777 175.528 54.8988 182.201V182.201ZM122.51 225.108C121.092 223.489 121.842 225.459 122.51 225.108V225.108ZM164.586 250.932C164.457 248.456 162.295 251.865 164.586 250.932V250.932ZM118.786 221.261C119.545 218.073 112.181 220.294 118.786 221.261V221.261ZM87.4359 201.39C93.1992 200.776 78.2015 197.497 87.4359 201.39V201.39ZM140.466 234.342C149.446 230.786 131.714 232.609 140.466 234.342V234.342ZM112.885 215.621C123.23 216.953 100.571 208.579 110.61 214.869L112.885 215.621ZM148.839 237.728C158.503 231.959 155.316 251.254 165.232 239.36C175.009 232.219 156.786 248.188 168.833 240.633C177.553 234.8 190.426 243.398 198.558 246.196C204.403 245.912 210.09 251.254 216.089 248.003C227.63 244.891 193.515 243.391 202.457 237.88C191.898 240.955 184.098 234.218 178.902 227.452C167.054 224.715 153.361 218.662 147.445 208.172C145.031 204.241 150.926 208.732 145.362 202.295C138.227 195.949 134.665 188.737 129.874 181.022C124.15 177.971 123.476 168.983 122.9 180.724C122.947 173.313 115.989 168.325 114.287 170.394C114.257 163.259 121.737 166.837 116.502 161.558C115.377 154.162 111.667 146.455 110.555 138.102C108.825 134.079 110.309 125.459 104.64 134.569C102.578 144.202 103.958 122.737 107.169 129.811C111.383 122.592 105.65 123.442 105.421 124.439C108.165 118.348 107.161 109.703 104.701 112.998C106.165 106.537 107.016 89.2277 102.518 92.3004C105.245 85.5422 107.691 61.3863 95.8417 70.5996C91.0453 70.6675 82.732 72.3398 78.8085 74.2933C91.1226 81.0832 77.5663 76.7449 72.5472 75.6644C71.8956 81.948 66.9304 79.2351 60.723 79.2961C70.6394 80.5218 55.8949 89.4328 50.2183 85.9711C42.8308 89.4961 56.5863 98.3086 50.3636 101.036C51.1312 105.136 39.0527 99.5507 39.996 109.037C32.83 106.016 39.0152 120.286 42.6011 115.459C54.7933 118.761 51.1839 126.279 51.4898 133.427C49.5046 137.587 41.6812 123.642 49.7495 124.287C43.3816 113.947 42.7089 120.546 37.4203 125.351C36.1945 125.696 50.9074 132.185 41.6742 135.389C49.7964 136.646 50.0343 143.757 51.6902 148.256C56.571 153.342 55.5656 142.637 61.4144 148.754C57.7113 143.305 41.8265 133.403 54.6175 136.578C54.5472 131.099 52.3019 126.676 56.2253 126.783C60.1113 119.756 52.1566 144.117 60.9081 135.183C63.3281 134.126 63.9351 128.148 68.2874 135.75C74.6085 141.973 70.5714 146.476 61.6511 140.776C63.2449 146.194 73.582 148.124 71.6355 156.593C73.6956 164.041 76.5785 161.297 79.091 160.868C81.0597 168.102 82.1812 162.784 82.2726 159.335C91.2913 161.269 89.1761 166.601 92.0027 170.325C98.2171 173.128 83.107 151.312 93.7746 163.765C104.999 173.903 97.9886 178.132 87.9128 176.509C94.2878 175.993 96.3398 185.13 104.319 184.808C111.591 188.271 116.518 201.559 103.982 196.025C99.6363 192.102 84.2402 187.267 96.8167 194.723C108.418 200.102 117.644 203.313 128.839 210.066C136.848 215.782 140.31 222.332 143.345 223.629C136.61 226.846 123.055 221.061 133.123 219.292C126.839 218.149 119.775 214.97 125.789 222.793C130.908 227.07 143.912 226.616 146.25 227.099C144.273 231.452 140.879 231.798 146.326 232.134C140.249 235.376 148.281 235.882 148.84 237.728H148.839ZM136.41 202.624C132.709 198.755 131.752 191.514 135.751 197.81C137.805 198.639 142.319 209.652 136.41 202.624ZM176.894 228.341C179.201 228.189 176.962 230.094 176.894 228.341V228.341ZM130.573 193.138C130.425 187.29 131.904 197.65 130.573 193.138V193.138ZM126.548 187.727C121.89 178.739 132.41 190.271 126.548 187.727V187.727ZM77.7808 154.072C80.5171 153.342 79.1296 158.745 77.7808 154.072V154.072ZM116.594 175.106C118.273 168.799 118.564 180.395 116.594 175.106V175.106ZM89.1761 156.04C87.246 152.562 93.2156 159.306 89.1761 156.04V156.04ZM112.701 163.581C108.295 153.711 115.828 158.186 113.682 165.198L112.701 163.581ZM72.1265 136.522C70.1578 133.282 66.8999 123.779 67.9499 120.877C68.8921 125.604 77.9964 141.213 72.4089 127.344C66.2413 115.719 79.7894 131.113 81.1839 134.018C81.8355 136.9 77.3753 133.229 80.3941 139.995C74.8851 132.293 77.1445 144.248 72.1265 136.522ZM59.5898 127.88C60.1031 120.347 62.4562 133.044 59.5898 127.88V127.88ZM65.23 129.825C67.9195 124.141 69.7886 137.749 65.23 129.825V129.825ZM51.6585 119.328C46.991 114.683 43.6113 110.408 51.88 116.446C55.0605 116.569 44.8007 106.723 52.6476 113.319C60.8917 114.823 56.7152 126.846 51.6585 119.328ZM58.7847 119.145C61.4988 116.455 60.2261 121.788 58.7847 119.145V119.145ZM63.1757 120.546C59.0601 112.845 68.1644 123.78 63.1757 120.546V120.546ZM54.4558 112.218C40.8855 100.131 71.5054 118.53 56.6706 114.453L54.4558 112.218ZM93.3445 134.807C87.4675 131.289 91.7812 110.018 93.7898 124.562C99.4992 122.714 93.4734 132.08 97.7273 131.987C97.0617 137.893 95.1538 140.019 93.3445 134.807ZM107.728 143.312C108.302 136.9 108.939 147.697 107.728 143.312V143.312ZM105.231 140.837C105.874 138.102 105.292 144.063 105.231 140.837V140.837ZM57.1136 108.247C48.3949 96.2156 82.4554 120.415 62.7011 111.298C60.6386 110.754 58.1495 110.562 57.1136 108.247ZM84.8156 122.931C83.9894 112.8 86.6554 124.607 84.8156 122.931V122.931ZM105.843 136.423C107.467 130.653 105.967 140.241 105.843 136.423V136.423ZM58.4554 103.657C63.6363 102.546 79.9265 112.753 64.9687 106.569C63.307 104.729 59.7585 105.565 58.4554 103.656V103.657ZM102.953 125.834C103.507 115.474 106.051 119.65 102.976 127.321L102.953 125.832V125.834ZM62.3097 100.049C64.4238 96.9515 56.6988 86.0484 63.4195 96.1394C66.3257 98.4457 71.8253 100.002 66.9679 100.975C74.6074 107.712 65.107 102.799 62.3097 100.049ZM100.753 122.6C102.211 110.8 102.042 129.512 100.753 122.6V122.6ZM57.8953 89.1515C59.5124 88.4601 58.7531 91.3031 57.8953 89.1515V89.1515ZM67.9265 95.1211C70.507 89.7023 72.6843 101.159 67.9265 95.1211V95.1211ZM96.2097 110.852C96.1863 108.776 96.7453 113.879 96.2097 110.852V110.852ZM94.5691 107.229C90.6456 97.5422 98.2253 112.355 94.5691 107.229V107.229ZM92.162 100.875C91.5058 96.8742 94.4003 105.902 92.162 100.875V100.875ZM96.0855 94.5C93.389 89.755 99.4898 73.5797 100.172 83.6109C97.3277 91.4273 99.3515 95.7961 101.327 85.3125C104.992 77.0672 100.539 101.597 96.0855 94.5ZM100.117 70.4461C101.291 69.0047 100.378 72.184 100.117 70.4461V70.4461ZM93.3831 203.114C91.7882 201.72 93.5882 203.996 93.3831 203.114V203.114ZM107.252 210.127C114.968 212.112 114.93 208.93 107.955 207.98C104.209 204.495 92.3695 200.793 102.968 207.551C103.666 209.33 105.881 209.283 107.252 210.127ZM79.8656 191.933C84.1101 195.108 95.8722 200.914 85.9183 193.146C89.2746 189.244 79.4964 187.168 82.739 184.556C74.4855 179.504 76.2234 179.957 82.0113 180.118C72.0949 175.68 83.4433 176.018 82.9078 173.743C79.0839 172.991 63.9105 166.998 72.8378 174.233C63.7652 169.611 70.6757 175.957 67.9335 175.29C58.6523 172.761 76.1953 182.357 66.4617 179.973C71.7808 184.187 80.7843 190.778 68.707 184.432C67.1214 186.723 77.3519 190.195 79.8644 191.933H79.8656ZM94.3699 200.271C112.003 205.95 85.7179 193.321 94.3699 200.271V200.271ZM168.625 245.252C168.854 241.751 166.218 248.241 168.625 245.252V245.252ZM176.257 248.463C180.326 244.526 176.426 254.747 183 247.499C183.068 242.31 182.801 239.246 175.445 245.551C173.413 246.679 172.51 251.452 176.257 248.464V248.463ZM55.1062 172.38C53.8558 167.468 46.3464 167.489 55.1062 172.38V172.38ZM63.2507 177.72C60.2238 172.702 52.4531 173.176 63.2507 177.72V177.72ZM109.619 205.682C114.15 209.706 130.41 208.632 115.116 206.181C112.854 202.832 100.739 203.637 109.619 205.682ZM173.352 245.048C180.318 239.201 166.602 247.654 173.352 245.048V245.048ZM187.843 255.001C187.888 253.124 184.84 255.821 187.843 255.001V255.001ZM187.867 252.373C195.582 244.205 180.395 252.855 187.867 252.373V252.373ZM35.0589 155.597C28.4847 146.217 30.9749 142.002 24.6304 134.339C23.4257 128.477 13.7496 115.189 19.6265 129.266C25.0054 137.504 26.5992 150.254 35.0601 155.597H35.0589ZM185.444 249.775C199.645 240.601 179.621 245.782 185.444 249.775V249.775ZM196.281 254.019C203.392 247.918 191.782 252.746 196.281 254.019V254.019ZM52.691 162.009C54.723 158.982 47.4351 161.619 52.691 162.009V162.009ZM194.019 251.122C200.9 246.687 192.434 247.368 192.771 251.528L194.019 251.122ZM100.623 192.255C100.386 189.252 96.9843 192.509 100.623 192.255V192.255ZM106.393 195.574C104.555 191.865 103.574 196.157 106.393 195.574V195.574ZM205.062 254.12C213.881 247.758 199.721 252.9 203.215 255.33L205.062 254.12ZM201.683 252.487C208.87 246.471 194.103 255.154 201.683 252.487V252.487ZM218.938 263.973C223.76 260.747 213.077 262.931 218.938 263.973V263.973ZM57.1136 159.826C63.573 161.273 82.9441 175.741 71.5195 160.83C65.666 159.098 69.1757 144.791 63.2062 147.32C67.214 154.017 66.4992 156.859 58.0851 152.646C47.5195 147.48 52.1472 155.198 54.2179 157.329C51.396 157.972 57.941 159.773 57.1124 159.825L57.1136 159.826ZM27.6644 136.57C28.821 131.78 17.005 110.239 22.0863 125.773C23.9167 129.029 23.7269 135.197 27.6644 136.57V136.57ZM81.7183 169.895C78.3855 167.114 81.5578 169.496 81.7183 169.895V169.895ZM89.9097 171.805C89.9097 166.731 80.8535 169.743 89.9097 171.805V171.805ZM160.946 216.579C159.591 213.114 155.591 216.502 160.946 216.579V216.579ZM164.357 219.068C163.849 217.13 162.385 219.444 164.357 219.068V219.068ZM192.51 236.808C195.216 234.809 189.13 236.549 192.51 236.808V236.808ZM42.3703 140.325C50.1163 137.327 34.0699 138.186 42.3703 140.325V140.325ZM154.692 211.083C154.602 206.072 149.75 212.333 154.692 211.083V211.083ZM39.3117 133.189C44.2851 131.514 34.7062 132.088 39.3117 133.189V133.189ZM53.7492 140.186C53.6636 138.539 52.2246 140.815 53.7492 140.186V140.186ZM229.882 248.195C236.28 246.9 250.863 251.453 253.215 246.503C245.446 246.311 226.342 241.015 225.437 247.758L227.139 248.027L229.883 248.195H229.882ZM58.3382 141.343C58.4554 136.262 54.3773 141.152 58.3382 141.343V141.343ZM20.3788 115.005C18.655 105.326 13.8187 113.541 20.3788 115.005V115.005ZM29.4281 117.281C29.5441 114.17 21.1429 114.484 29.4281 117.281V117.281ZM34.6007 119.825C33.1066 118.614 33.4359 121.349 34.6007 119.825V119.825ZM67.1601 140.707C68.6941 139.296 63.5285 139.665 67.1601 140.707V140.707ZM31.1601 114.094C30.28 106.784 20.6695 112.998 31.1601 114.094V114.094ZM12.5917 102.047C12.3304 98.6754 10.7824 103.318 12.5917 102.047V102.047ZM15.3574 99.9644C14.9062 95.9625 12.982 100.468 15.3574 99.9644V99.9644ZM30.6093 109.066C37.0617 106.537 18.8601 103.825 29.291 108.592L30.6093 109.066ZM234.78 235.184C238.91 231.398 229.539 234.012 234.78 235.184V235.184ZM259.447 247.965C261.103 243.077 255.278 248.61 259.447 247.965V247.965ZM32.1679 101.074C32.8511 96.3398 27.0503 102.016 32.1679 101.074V101.074ZM10.4613 86.5312C9.29643 79.8492 9.45697 68.1164 20.6074 72.0785C5.72455 75.0363 30.914 90.5824 27.7335 78.307C33.9937 78.6152 39.9796 74.6074 36.6913 80.6824C49.0288 79.3265 57.5742 68.6297 69.4886 70.132C78.7675 68.8992 88.9136 67.9711 98.9144 64.2316C107.136 63.641 115.051 54.7898 110.548 49.541C99.3363 48.5918 87.5953 49.9933 75.205 52.4613C61.4742 55.3113 48.9996 60.7359 35.1433 63.0668C21.6328 64.8832 37.8562 68.0625 33.9855 68.775C26.9425 71.2195 42.3925 72.8672 33.0738 75.4488C27.3199 74.3543 21.3269 72.3773 23.7867 66.3082C10.8515 67.9933 -0.52037 73.357 9.70307 86.5218L10.4624 86.5289L10.4613 86.5312ZM41.6425 70.6523C44.6695 59.4808 57.887 79.8492 46.6078 72.1394C45.266 71.1269 43.0429 70.3066 41.6425 70.6523ZM42.2308 65.2336C46.6078 61.9781 44.5535 67.0664 42.2308 65.2336V65.2336ZM47.7867 65.3273C48.1874 60.1851 60.5167 68.0472 49.8187 67.1742L47.7867 65.3261V65.3273ZM55.3886 62.2699C58.1706 59.0191 56.1949 65.1504 55.3886 62.2699V62.2699ZM57.3363 60.9679C61.964 55.4121 83.5195 57.4183 67.7413 60.4218C63.5109 57.2343 60.2706 62.2992 57.3363 60.9679ZM85.473 56.6297C84.7769 41.448 99.4581 62.0168 85.473 56.6297V56.6297ZM93.4593 56.5828C96.3773 48.9363 104.791 53.5113 94.8152 55.0429C95.0285 55.8632 94.5163 58.998 93.4593 56.5828ZM29.0214 97.1508C37.7402 91.8093 19.7636 92.516 29.0214 97.1508V97.1508ZM35.4726 98.9367C38.5312 95.6883 28.821 97.6183 35.4726 98.9367V98.9367ZM16.4695 85.4578C21.4499 81.6258 10.5691 84.0023 16.4695 85.4578V85.4578ZM274.005 246.571C274.151 242.126 270.197 248.57 274.005 246.571V246.571ZM247.836 228.708C248.579 223.598 244.473 229.153 247.836 228.708V228.708ZM281.201 248.296C288.168 248.319 302.311 246.125 287.154 246.134C284.771 246.503 273.293 246.427 281.201 248.296ZM41.1445 95.8008C46.7847 95.4175 49.964 89.5851 40.0476 89.9156C24.6843 88.33 53.6027 95.1808 38.0788 93.2191C35.9953 94.5984 41.0203 96.184 41.1445 95.8008ZM46.1097 98.3156C45.5191 94.698 44.3613 100.237 46.1097 98.3156V98.3156ZM52.0019 82.6054C54.4464 79.5703 48.6152 81.7933 52.0019 82.6054V82.6054ZM33.2425 51.2578C43.3124 47.8406 57.0749 43.9933 61.8269 52.9453C56.9906 47.1293 59.8734 41.3964 64.4402 49.9101C70.8995 58.5164 74.1316 45.9949 69.9328 43.105C74.7234 49.0511 80.1632 51.8648 73.1355 43.4824C80.7761 34.2937 57.8484 44.6847 52.6382 44.5769C50.1328 45.7019 26.7527 50.5382 33.2437 51.2578H33.2425ZM39.1429 39.9644C44.8839 35.6355 58.998 42.5461 49.9406 35.6566C49.0523 34.8761 30.1101 40.8832 39.1429 39.9644ZM60.0714 40.8293C66.7839 40.998 57.1757 31.8023 65.1749 35.9707C63.8648 31.6804 55.8574 30.8754 51.9421 29.1597C49.7273 33.0832 56.4456 40.8832 60.0714 40.8293V40.8293ZM42.8132 21.832C45.1359 18.6832 38.7374 23.4339 42.8132 21.832V21.832ZM51.3679 23.8769C62.1937 22.4449 48.607 19.2187 49.1812 23.7632L51.3667 23.8769H51.3679ZM35.3953 11.3871C27.7699 1.43317 49.7331 13.0582 41.9847 2.63551C35.4644 -2.55121 29.2042 8.48317 35.3953 11.3871V11.3871ZM133.212 64.0711C136.709 57.8777 118.784 55.7179 130.86 61.8773C131.971 62.2464 131.72 64.4988 133.212 64.0711ZM62.2359 294.721C61.4624 297.775 60.9831 302.899 60.8038 310.092C60.8038 311.505 60.1675 312.213 58.8913 312.213C57.6152 312.213 56.7269 311.596 56.2242 310.366C54.8578 307.041 53.564 304.721 52.3288 303.397C50.8734 301.85 48.9374 300.915 46.5222 300.596C43.9265 300.186 37.4601 299.981 27.1218 299.981C24.7546 299.981 23.2042 300.233 22.4777 300.736C22.0218 301.052 21.7945 301.737 21.7945 302.786V333.734C21.7945 334.781 22.4542 335.28 23.7726 335.237C27.8285 335.19 33.7031 334.914 41.3976 334.417C42.9023 334.232 43.9171 333.743 44.4398 332.945C44.9671 332.148 45.4792 330.09 45.9773 326.763C46.2937 324.941 47.3671 324.234 49.1882 324.647C50.7351 324.966 51.4007 325.672 51.1722 326.763C49.8949 332.96 49.4824 341.021 49.9382 350.951C49.9863 352.132 49.2351 352.772 47.6847 352.863C46.4074 353 45.6105 352.316 45.2941 350.812C44.1128 345.121 41.9109 342.079 38.7035 341.689C35.4925 341.305 30.2624 341.111 23.0238 341.111C22.2035 341.111 21.7945 341.405 21.7945 341.998V372.742C21.7945 375.02 22.6347 376.57 24.3187 377.387C25.6429 378.07 28.4882 378.687 32.8581 379.233C35.0929 379.46 36.0691 380.442 35.7996 382.17C35.5242 383.673 33.5226 384.266 29.7843 383.947C18.9913 383.08 10.0851 383.127 3.07377 384.087C1.11322 384.356 0.137052 383.559 0.137052 381.695C0.137052 380.508 1.11322 379.826 3.07377 379.644C7.53744 379.141 9.76752 375.224 9.76752 367.894V309.408C9.76752 306.405 9.2308 304.095 8.16322 302.476C7.09096 300.859 5.0976 299.388 2.18666 298.069C0.363224 297.248 -0.318807 296.134 0.13588 294.721C0.363224 293.857 0.728849 293.377 1.2269 293.288C1.68276 293.149 2.89213 293.241 4.84682 293.562C7.71791 294.016 14.4831 294.245 25.139 294.245C37.7121 294.245 48.5718 293.97 57.7288 293.425C60.7792 293.239 62.3074 293.491 62.3074 294.175C62.3074 294.36 62.2839 294.539 62.2359 294.721V294.721ZM106.541 381.448C106.541 383.27 105.516 384.067 103.467 383.838C97.1859 383.245 89.3953 383.334 80.1046 384.109C78.2355 384.294 77.0882 384.246 76.6523 383.977C76.2187 383.701 76.0054 382.951 76.0054 381.717C76.0054 380.627 77.2441 379.706 79.7261 378.952C82.2117 378.203 83.4492 375.959 83.4492 372.225V310.395C83.4492 306.703 82.9136 303.994 81.846 302.262C80.7738 300.531 78.8953 299.188 76.2093 298.234C74.796 297.73 74.0882 297.025 74.0882 296.113C74.0882 294.746 75.1136 293.722 77.1632 293.039C80.2617 292.037 83.4738 290.491 86.7996 288.394C89.5324 286.753 91.2644 285.936 91.9898 285.936C93.6738 285.936 94.5199 287.094 94.5199 289.418C94.5199 289.239 94.4285 291.516 94.2433 296.25C94.1109 300.758 94.064 305.198 94.1109 309.574L94.3804 370.582C94.3804 373.362 95.0648 375.379 96.4312 376.631C97.7976 377.883 100.146 378.714 103.467 379.123C105.516 379.349 106.541 380.123 106.541 381.446V381.448ZM168.333 377.419C168.333 378.377 166.591 379.821 163.109 381.755C159.622 383.692 156.832 384.66 154.739 384.66C152.96 384.66 151.391 383.796 150.025 382.064C148.658 380.333 147.698 379.47 147.153 379.47C146.744 379.47 144.581 380.404 140.661 382.268C136.748 384.137 132.806 385.072 128.844 385.072C125.11 385.072 121.989 383.977 119.484 381.795C116.752 379.378 115.385 376.099 115.385 371.953C115.385 364.073 124.404 358.427 142.441 355.011C145.535 354.418 147.11 353.166 147.152 351.253L147.292 346.88C147.566 339.411 144.264 335.678 137.385 335.678C135.425 335.678 133.57 337.429 131.814 340.935C130.064 344.446 127.544 346.334 124.266 346.609C120.532 346.97 118.663 345.4 118.663 341.893C118.663 339.705 121.443 337.159 126.998 334.241C132.83 331.191 138.434 329.662 143.808 329.662C153.052 329.662 157.629 334.061 157.539 342.851L157.263 370.996C157.221 373.957 158.474 375.436 161.021 375.436C161.524 375.436 162.482 375.323 163.891 375.095C165.306 374.868 166.126 374.753 166.355 374.753C167.673 374.753 168.333 375.645 168.333 377.419V377.419ZM147.292 361.845C147.339 360.704 147.073 359.95 146.503 359.59C145.934 359.225 145.038 359.153 143.808 359.381C132.83 361.341 127.341 364.917 127.341 370.109C127.341 375.347 130.187 377.965 135.88 377.965C138.158 377.965 140.507 377.534 142.916 376.67C145.744 375.664 147.153 374.46 147.153 373.045L147.292 361.843V361.845ZM219.127 369.559C219.127 374.387 217.266 378.227 213.557 381.073C209.845 383.92 204.779 385.343 198.355 385.343C194.075 385.343 189.791 384.888 185.511 383.977C181.82 383.156 179.68 382.406 179.088 381.723C178.723 381.082 178.542 377.966 178.542 372.362C178.542 369.948 179.088 368.694 180.183 368.605C181.275 368.467 182.21 369.061 182.984 370.379C186.398 376.348 191.911 379.332 199.518 379.332C205.936 379.332 209.148 377.098 209.148 372.633C209.148 370.678 208.421 369.036 206.961 367.717C205.366 366.213 202.274 364.459 197.672 362.455C191.02 359.496 186.579 356.9 184.349 354.666C181.934 352.298 180.728 349.111 180.728 345.101C180.728 340.18 182.618 336.357 186.398 333.625C189.905 330.981 194.597 329.662 200.47 329.662C204.162 329.662 207.531 329.955 210.586 330.55C213.865 331.143 215.572 331.869 215.709 332.736C216.07 335.284 216.825 338.975 217.964 343.806C218.101 344.394 217.46 344.873 216.052 345.238C214.547 345.557 213.546 345.305 213.043 344.488C209.447 338.61 204.893 335.673 199.379 335.673C193.14 335.673 190.019 337.677 190.019 341.685C190.019 343.918 190.863 345.693 192.547 347.012C194.052 348.151 197.58 349.93 203.137 352.345C208.968 354.85 212.93 357.104 215.027 359.107C217.76 361.702 219.127 365.189 219.127 369.559ZM299.502 381.516C299.502 383.109 298.43 383.953 296.29 384.043C293.101 384.09 288.93 384.318 283.788 384.727C281.236 385.229 279.414 384.912 278.323 383.773C271.125 376.03 265.019 367.922 260.009 359.448C259.601 358.721 259.078 358.357 258.438 358.357C257.665 358.357 256.323 359.04 254.41 360.408C252.266 361.589 251.198 363.277 251.198 365.459C251.198 367.01 251.241 369.24 251.335 372.159C251.427 375.071 252.152 376.983 253.519 377.895C254.476 378.536 256.689 379.034 260.146 379.399C262.287 379.673 263.359 380.47 263.359 381.79C263.359 382.839 263.188 383.489 262.846 383.735C262.506 383.986 261.603 384.043 260.146 383.906C255.592 383.498 247.896 383.726 237.056 384.589C234.323 384.817 232.842 384.475 232.615 383.564C232.525 383.248 232.477 382.791 232.477 382.198C232.477 380.789 233.868 379.716 236.648 378.991C239.153 378.349 240.404 375.412 240.404 370.175V310.462C240.404 306.729 240.041 304.133 239.309 302.677C238.308 300.807 236.21 299.35 233.023 298.302C231.523 297.804 230.769 297.097 230.769 296.186C230.769 294.861 231.841 293.837 233.98 293.112C237.423 291.96 240.705 290.376 243.749 288.396C246.255 286.759 247.806 285.937 248.394 285.937C250.264 285.937 251.198 287.119 251.198 289.492C251.198 289.17 251.175 291.428 251.127 296.254C251.078 300.717 251.056 305.182 251.061 309.646L251.198 352.412C251.198 353.598 251.516 354.186 252.152 354.186C252.835 354.186 253.884 353.598 255.298 352.412C259.078 349.451 263.723 345.58 269.232 340.798C270.328 339.66 270.873 338.748 270.873 338.065C270.873 336.837 269.028 335.967 265.342 335.47C263.748 335.284 262.993 334.398 263.082 332.803C263.221 331.209 264.019 330.526 265.474 330.754C268.758 331.211 273.54 331.461 279.821 331.508C284.196 331.55 288.546 331.575 292.874 331.575C294.282 331.622 294.99 332.462 294.99 334.104C294.99 335.651 293.875 336.495 291.644 336.633C288.134 336.765 284.831 337.562 281.739 339.023C277.411 340.978 272.785 344.418 267.866 349.338C267.505 349.612 267.32 349.954 267.32 350.363C267.32 350.999 268.093 352.527 269.645 354.941C275.338 363.595 280.713 370.128 285.766 374.549C289.002 377.326 292.029 378.715 294.852 378.715C296.95 378.715 298.248 378.862 298.746 379.16C299.25 379.457 299.502 380.243 299.502 381.516V381.516Z" fill="black"/>
</g>
<defs>
<clipPath id="clip0_21_45">
<rect width="300" height="385.604" fill="white"/>
</clipPath>
</defs>
</svg>
