<svg width="98" height="98" viewBox="0 0 98 98" fill="none" xmlns="http://www.w3.org/2000/svg">
<g clip-path="url(#clip0_7_15)">
<path fill-rule="evenodd" clip-rule="evenodd" d="M0.699994 48.7001C0.686813 42.3272 1.93231 36.0146 4.36499 30.1243C6.79767 24.2341 10.3697 18.8822 14.8759 14.376C19.3822 9.86971 24.734 6.29774 30.6243 3.86505C36.5145 1.43237 42.8272 0.186874 49.2 0.200055H97.7V48.7001C97.7 61.5631 92.5902 73.8992 83.4947 82.9947C74.3992 92.0903 62.063 97.2001 49.2 97.2001C36.337 97.2001 24.0008 92.0903 14.9053 82.9947C5.8098 73.8992 0.699994 61.5631 0.699994 48.7001V48.7001ZM14.2 50.7001C14.6787 59.2965 18.3091 67.4149 24.3971 73.5029C30.4851 79.5909 38.6035 83.2214 47.2 83.7001V50.7001H14.2V50.7001ZM51.2 50.7001H84.2C83.7213 59.2965 80.0909 67.4149 74.0029 73.5029C67.9148 79.5909 59.7964 83.2214 51.2 83.7001V50.7001ZM84.2 13.7001H51.2V46.7001H84.2V13.7001Z" fill="#F0047F"/>
<path d="M-81 203C-89.5964 202.522 -97.7149 198.891 -103.803 192.803C-109.891 186.715 -113.521 178.597 -114 170H-81V203ZM-76.9 170.1H-43.9C-44.3787 178.697 -48.0091 186.815 -54.0971 192.903C-60.1852 198.991 -68.3036 202.622 -76.9 203.1V170.1ZM-76.9 132.9H-43.9V165.9H-76.9V132.9ZM35.7 170.7V135H20.6V174.5C20.6 177.8 20.3 182 16 182C12.2 182 11.6 178 11.5 175.1H-4.6C-4.6 183.8 -1.1 190.8 7.3 193.8C11.5553 195.49 16.236 195.791 20.6725 194.659C25.1091 193.528 29.074 191.022 32 187.5C35.7 182.9 35.7 176.4 35.7 170.7ZM91 194.2V149.8H77.7V154.5H77.6C74.9 150.1 69.6 148.2 64.6 148.2C51.3 148.2 42.3 159 42.3 171.9C42.3 185.1 50.9 195.7 64.6 195.7C69.4 195.7 75.2 193.9 77.6 189.4H77.7V194.2H91ZM77.7 171.9C77.7538 173.378 77.509 174.852 76.9803 176.233C76.4517 177.614 75.6499 178.874 74.6231 179.938C73.5962 181.003 72.3653 181.849 71.004 182.427C69.6427 183.004 68.1788 183.301 66.7 183.3C60.4 183.3 55.6 178.3 55.6 172.1C55.6 165.8 60.1 160.6 66.6 160.6C68.0785 160.586 69.5447 160.871 70.9109 161.436C72.2771 162.002 73.5153 162.837 74.5514 163.891C75.5876 164.946 76.4004 166.199 76.9414 167.575C77.4824 168.951 77.7404 170.422 77.7 171.9ZM168.9 194.2V169.9C168.9 163.1 169.1 157.9 164.1 152.7C162.56 151.192 160.727 150.014 158.715 149.24C156.703 148.466 154.554 148.113 152.4 148.2C146.4 148.2 141.5 151.2 138.4 156.2C135.6 151.2 131.3 148.2 125.5 148.2C120.5 148.2 115.8 149.9 113.3 154.5H113.1V149.8H100.7V194.2H114V170.6C114 165.4 115.4 160.7 121.5 160.7C127.1 160.7 128.2 165.4 128.2 170V194.2H141.4V169.9C141.4 164.9 142.9 160.7 148.8 160.7C155 160.7 155.6 165.7 155.6 170.6V194.2H168.9ZM211.5 180.6C211.5 164.9 189.2 168.8 189.2 161.8C189.2 159.8 191.2 158.8 192.9 158.8C195.3 158.8 197 159.8 197.1 162.2H210.1C209.3 152.8 202 148.2 193.1 148.2C184.5 148.2 175.9 153.6 175.9 162.9C175.9 169.1 181.2 172.6 186.5 174.5L192.2 176.5C194.6 177.5 198.2 178.4 198.2 181.5C198.2 183.9 195.6 185 193.6 185C190.9 185 188.9 183.7 188.6 181H175.3C176.3 190.7 184.1 195.7 193.4 195.7C202.4 195.7 211.5 190.6 211.5 180.6ZM240.5 159.8V149.8H234.1V135H220.8V149.8H214.2V159.8H220.8V194.3H234.1V159.8H240.5ZM291.7 194.2V149.8H278.4V154.5H278.2C275.6 150.1 270.2 148.2 265.2 148.2C251.9 148.3 242.9 159 242.9 171.9C242.9 185.1 251.6 195.7 265.3 195.7C270.1 195.7 275.8 193.9 278.3 189.4V194.2H291.7ZM278.4 171.9C278.454 173.387 278.206 174.869 277.672 176.256C277.137 177.644 276.326 178.909 275.288 179.975C274.251 181.04 273.008 181.884 271.635 182.456C270.262 183.028 268.787 183.315 267.3 183.3C261 183.3 256.3 178.3 256.3 172.1C256.3 165.8 260.7 160.6 267.2 160.6C268.687 160.573 270.164 160.847 271.542 161.406C272.92 161.966 274.17 162.799 275.217 163.855C276.264 164.911 277.086 166.169 277.633 167.552C278.18 168.934 278.441 170.414 278.4 171.9ZM346.2 177.3H332.7C330.7 181.1 327.5 183.2 323.1 183.2C316.6 183.2 312.5 178.2 312.5 171.9C312.5 165.9 316.4 160.6 322.8 160.6C327.3 160.6 330.8 162.7 332.7 166.9H346.1C344.981 161.531 342.019 156.722 337.727 153.307C333.435 149.891 328.084 148.085 322.6 148.2C319.506 148.187 316.441 148.789 313.583 149.973C310.725 151.157 308.131 152.898 305.953 155.095C303.774 157.292 302.055 159.9 300.896 162.768C299.737 165.637 299.16 168.707 299.2 171.8C299.173 174.925 299.768 178.023 300.948 180.916C302.128 183.809 303.872 186.439 306.076 188.653C308.281 190.867 310.903 192.621 313.791 193.814C316.679 195.007 319.775 195.614 322.9 195.6C334.1 195.6 343.7 188.2 346.2 177.3ZM394.4 149.8H378.6L366.3 165.8H366.1V135H352.9V194.2H366.2V172.8H366.4L378.9 194.2H393.9L377.7 169.2L394.5 149.8H394.4Z" fill="white"/>
<path d="M47 83.7001C38.4036 83.2214 30.2851 79.591 24.1971 73.503C18.1091 67.4149 14.4787 59.2965 14 50.7001H47V83.7001ZM51.1 50.8001H84.1C83.6213 59.3965 79.9909 67.5149 73.9029 73.603C67.8148 79.691 59.6965 83.3214 51.1 83.8001V50.8001ZM51.1 13.6001H84.1V46.6001H51.1V13.6001Z" fill="white"/>
</g>
<defs>
<clipPath id="clip0_7_15">
<rect width="97.0001" height="97.0001" fill="white" transform="translate(0.69989 0.199951)"/>
</clipPath>
</defs>
</svg>
