<svg width="692" height="364" viewBox="0 0 692 364" fill="none" xmlns="http://www.w3.org/2000/svg">
<path d="M0 181.799C0 282.202 154.734 363.597 345.6 363.597C536.466 363.597 691.201 282.202 691.201 181.799C691.201 81.3962 536.466 -1.52588e-05 345.6 -1.52588e-05C154.734 -1.52588e-05 0 81.3962 0 181.799Z" fill="url(#paint0_radial_0_4)"/>
<path d="M345.6 350.099C529.011 350.099 677.7 274.748 677.7 181.798C677.7 88.8495 529.011 13.497 345.6 13.497C162.189 13.497 13.5 88.8495 13.5 181.798C13.5 274.748 162.189 350.099 345.6 350.099Z" fill="#777BB3"/>
<path d="M187.768 202.665C202.849 202.665 214.108 199.884 221.232 194.402C228.279 188.975 233.147 179.574 235.698 166.46C238.077 154.203 237.171 145.644 233.006 141.025C228.747 136.308 219.539 133.915 205.639 133.915H181.538L168.177 202.665H187.768ZM108.939 287.353C107.821 287.353 106.758 286.853 106.047 285.988C105.334 285.124 105.046 283.987 105.259 282.888L140.669 100.699C141.012 98.938 142.556 97.6655 144.351 97.6655H220.668C244.653 97.6655 262.506 104.178 273.727 117.024C285.008 129.938 288.492 147.989 284.081 170.675C282.286 179.918 279.198 188.502 274.904 196.187C270.606 203.88 264.924 210.999 258.016 217.349C249.746 225.089 240.386 230.702 230.221 234.004C220.217 237.263 207.369 238.915 192.036 238.915H161.133L152.308 284.318C151.966 286.08 150.423 287.353 148.628 287.353H108.939Z" fill="black"/>
<path d="M184.63 137.665H205.64C222.416 137.665 228.243 141.346 230.223 143.54C233.508 147.182 234.128 154.862 232.017 165.749C229.645 177.936 225.247 186.577 218.945 191.43C212.492 196.397 202.002 198.915 187.768 198.915H172.726L184.63 137.665ZM220.668 93.9148H144.35C140.76 93.9148 137.673 96.4598 136.988 99.9836L101.578 282.172C101.151 284.371 101.728 286.645 103.152 288.374C104.577 290.102 106.7 291.102 108.94 291.102H148.627C152.218 291.102 155.305 288.557 155.99 285.034L164.225 242.665H192.036C207.763 242.665 221.003 240.95 231.385 237.569C242.061 234.1 251.883 228.219 260.577 220.089C267.767 213.474 273.69 206.049 278.177 198.017C282.666 189.984 285.891 181.025 287.762 171.39C292.406 147.51 288.633 128.387 276.551 114.557C264.586 100.86 245.783 93.9148 220.668 93.9148ZM163.627 206.415H187.768C203.77 206.415 215.688 203.401 223.52 197.372C231.352 191.342 236.635 181.279 239.38 167.176C242.006 153.636 240.81 144.081 235.791 138.515C230.766 132.949 220.717 130.165 205.64 130.165H178.447L163.627 206.415V206.415ZM220.668 101.415C243.627 101.415 260.376 107.44 270.903 119.491C281.43 131.542 284.6 148.364 280.4 169.96C278.671 178.856 275.747 186.99 271.631 194.359C267.51 201.732 262.128 208.475 255.478 214.589C247.553 222.005 238.75 227.29 229.062 230.437C219.375 233.594 207.036 235.165 192.036 235.165H158.041L148.627 283.602H108.94L144.35 101.415H220.668" fill="white"/>
<path d="M375.079 238.915C373.959 238.915 372.897 238.415 372.186 237.55C371.472 236.687 371.184 235.55 371.397 234.45L387.061 153.839C388.551 146.173 388.184 140.67 386.027 138.345C384.707 136.924 380.742 134.54 369.019 134.54H340.641L320.947 235.88C320.605 237.643 319.061 238.915 317.266 238.915H277.891C276.771 238.915 275.71 238.415 274.997 237.55C274.285 236.687 273.996 235.549 274.21 234.45L309.62 52.2617C309.962 50.5005 311.506 49.228 313.301 49.228H352.676C353.796 49.228 354.857 49.728 355.57 50.5917C356.282 51.4567 356.571 52.593 356.357 53.693L347.812 97.6655H378.34C401.596 97.6655 417.366 101.765 426.551 110.2C435.914 118.805 438.835 132.564 435.235 151.099L418.76 235.88C418.417 237.643 416.875 238.915 415.079 238.915H375.079Z" fill="black"/>
<path d="M352.676 45.4773H313.301C309.71 45.4773 306.624 48.0223 305.939 51.5461L270.529 233.735C270.101 235.934 270.679 238.207 272.104 239.936C273.529 241.665 275.651 242.665 277.891 242.665H317.266C320.856 242.665 323.944 240.12 324.629 236.596L343.733 138.29H369.019C380.723 138.29 383.179 140.79 383.278 140.897C383.988 141.661 384.921 145.199 383.38 153.124L367.716 233.735C367.289 235.934 367.866 238.207 369.291 239.936C370.716 241.665 372.839 242.665 375.079 242.665H415.079C418.669 242.665 421.756 240.12 422.441 236.596L438.915 151.815C442.781 131.914 439.474 116.985 429.089 107.44C419.179 98.3386 402.579 93.9148 378.34 93.9148H352.36L360.039 54.4086C360.465 52.2098 359.889 49.9348 358.464 48.2074C357.039 46.4786 354.916 45.4773 352.676 45.4773ZM352.676 52.9773L343.263 101.415H378.34C400.411 101.415 415.635 105.267 424.014 112.962C432.393 120.662 434.903 133.139 431.554 150.385L415.079 235.165H375.079L390.743 154.555C392.525 145.385 391.87 139.13 388.775 135.795C385.679 132.46 379.093 130.79 369.019 130.79H337.549L317.266 235.165H277.891L313.301 52.9773H352.676Z" fill="white"/>
<path d="M497.537 202.665C512.618 202.665 523.877 199.884 531.001 194.402C538.048 188.977 542.916 179.575 545.468 166.46C547.847 154.203 546.941 145.644 542.775 141.025C538.516 136.308 529.308 133.915 515.408 133.915H491.307L477.946 202.665H497.537ZM418.71 287.353C417.591 287.353 416.528 286.853 415.817 285.988C415.105 285.124 414.815 283.987 415.028 282.888L450.438 100.699C450.782 98.938 452.325 97.6655 454.121 97.6655H530.437C554.423 97.6655 572.275 104.178 583.497 117.024C594.778 129.937 598.261 147.988 593.851 170.675C592.053 179.918 588.967 188.502 584.673 196.187C580.375 203.88 574.693 210.999 567.785 217.349C559.515 225.089 550.155 230.702 539.99 234.004C529.986 237.263 517.138 238.915 501.805 238.915H470.901L462.08 284.318C461.736 286.08 460.193 287.353 458.397 287.353H418.71Z" fill="black"/>
<path d="M494.399 137.665H515.409C532.185 137.665 538.013 141.346 539.993 143.54C543.279 147.182 543.899 154.862 541.786 165.747C539.414 177.936 535.015 186.577 528.714 191.43C522.261 196.397 511.771 198.915 497.538 198.915H482.496L494.399 137.665ZM530.438 93.9148H454.12C450.53 93.9148 447.444 96.4598 446.759 99.9836L411.349 282.172C410.921 284.371 411.499 286.645 412.923 288.374C414.348 290.102 416.47 291.102 418.71 291.102H458.398C461.988 291.102 465.075 288.557 465.76 285.034L473.994 242.665H501.805C517.533 242.665 530.773 240.95 541.154 237.569C551.83 234.1 561.655 228.217 570.349 220.086C577.539 213.472 583.459 206.049 587.946 198.017C592.435 189.984 595.66 181.025 597.531 171.39C602.175 147.509 598.403 128.386 586.32 114.556C574.355 100.86 555.554 93.9148 530.438 93.9148ZM473.398 206.415H497.538C513.539 206.415 525.458 203.401 533.289 197.372C541.123 191.342 546.404 181.279 549.149 167.176C551.776 153.636 550.58 144.081 545.56 138.515C540.535 132.949 530.486 130.165 515.409 130.165H488.216L473.398 206.415ZM530.438 101.415C553.396 101.415 570.145 107.44 580.673 119.491C591.2 131.542 594.369 148.364 590.169 169.96C588.44 178.856 585.516 186.99 581.4 194.359C577.279 201.732 571.898 208.475 565.248 214.589C557.323 222.005 548.519 227.29 538.831 230.437C529.144 233.594 516.805 235.165 501.805 235.165H467.81L458.398 283.602H418.71L454.12 101.415H530.438Z" fill="white"/>
<defs>
<radialGradient id="paint0_radial_0_4" cx="0" cy="0" r="1" gradientUnits="userSpaceOnUse" gradientTransform="translate(207.5 63.9148) scale(453.822)">
<stop stop-color="#AEB2D5"/>
<stop offset="0.3" stop-color="#AEB2D5"/>
<stop offset="0.75" stop-color="#484C89"/>
<stop offset="1" stop-color="#484C89"/>
</radialGradient>
</defs>
</svg>
