<svg width="500" height="500" viewBox="0 0 74 28" fill="none" xmlns="http://www.w3.org/2000/svg" class="s-tech__img"><path d="M47.59 28L58.606.498h-7.304L43.767 18.27 38.407.498h-5.614L27.039 18.27l-4.058-8.098-3.672 11.387L23.037 28h7.188l5.2-15.938L40.383 28h7.206z" fill="#FB8C00" class="svg-brand"></path><path d="M7.625 18.559h4.487c1.36 0 2.57-.153 3.631-.46l1.161-3.607 3.244-10.083a8.05 8.05 0 00-.847-1.121c-1.665-1.86-4.102-2.79-7.31-2.79H.708V28h6.917v-9.441zm5.94-11.734c.65.66.975 1.544.975 2.652 0 1.116-.286 2.001-.858 2.655-.627.727-1.782 1.09-3.464 1.09H7.625V5.835h2.612c1.568 0 2.677.33 3.328.99zm40.566 16.25l2.097-5.337h6.053l-2.873-8.095L63.001.498 73.291 28h-7.589l-1.758-4.926h-9.813z" fill="#616161" class="svg-brand"></path></svg>