<svg width="64" height="64" viewBox="0 0 64 64" fill="none" xmlns="http://www.w3.org/2000/svg">
<g clip-path="url(#clip0_7_22)">
<path d="M32.0001 64.0002C49.6733 64.0002 64.0002 49.6732 64.0002 32.0001C64.0002 14.3269 49.6733 0 32.0001 0C14.3269 0 0 14.3269 0 32.0001C0 49.6732 14.3269 64.0002 32.0001 64.0002Z" fill="#1A171B"/>
<path d="M45.9896 11.8386C42.7368 11.9518 39.9009 13.742 37.7902 16.2238C35.453 18.9417 33.8965 22.1631 32.7737 25.452C30.769 23.8088 29.2221 21.6812 26.0272 20.7536C24.7587 20.363 23.4149 20.2837 22.1093 20.5223C20.8037 20.761 19.5748 21.3105 18.5265 22.1246C17.3893 22.9751 16.6038 24.2593 16.2327 25.4665C15.2689 28.606 17.2447 31.3986 18.1458 32.4009L20.1119 34.5068C20.5167 34.9164 21.4926 36.0007 21.0155 37.5427C20.4999 39.2221 18.4735 40.3136 16.3966 39.6703C15.4689 39.3884 14.1365 38.6969 14.4352 37.7234C14.5557 37.3259 14.8449 37.0247 14.9967 36.6825C15.1364 36.3862 15.2039 36.1645 15.2472 36.032C15.6279 34.7935 15.1075 33.1816 13.7823 32.772C12.5438 32.3913 11.2764 32.6925 10.7849 34.2899C10.2307 36.1019 11.0933 39.3884 15.7364 40.7955C21.1769 42.4677 25.7766 39.504 26.4296 35.6392C26.8392 33.2201 25.7477 31.4227 23.7478 29.1337L22.1166 27.3314C21.1528 26.3676 20.7914 24.6617 21.813 23.3702C22.6756 22.2788 23.9044 21.8137 25.9163 22.3583C28.8559 23.1534 30.1618 25.1942 32.3496 26.8399C31.4485 29.7987 30.8557 32.7672 30.3257 35.432L30.0004 37.4174C28.4391 45.6096 27.2464 50.1081 24.1454 52.6886C23.5189 53.1319 22.6274 53.797 21.2829 53.8452C20.577 53.8692 20.3505 53.3825 20.3433 53.1705C20.3264 52.6766 20.7432 52.4477 21.0179 52.226C21.4323 51.9995 22.0588 51.6236 22.0154 50.4261C21.9672 49.0094 20.7962 47.7757 19.1 47.836C17.8278 47.8793 15.8906 49.0768 15.9628 51.267C16.04 53.5319 18.1482 55.2258 21.3287 55.1173C23.0274 55.0595 26.8223 54.3704 30.5642 49.9201C34.9181 44.8217 36.1349 38.9812 37.0529 34.702L38.0745 29.0542L39.9105 29.1843C45.3318 29.2975 48.0449 26.4905 48.0858 24.4473C48.1099 23.2112 47.2738 21.9944 46.1004 22.0209C45.2571 22.045 44.2042 22.604 43.9512 23.7654C43.703 24.9051 45.6764 25.9339 44.1343 26.9314C43.038 27.6398 41.0743 28.141 38.3082 27.7338L38.8142 24.9533C39.8406 19.6814 41.1032 13.1951 45.9101 13.0409C46.2594 13.024 47.5413 13.0577 47.5726 13.9035C47.5822 14.1854 47.5124 14.2577 47.1799 14.9058C46.8425 15.3877 46.7148 15.8407 46.7317 16.3346C46.7799 17.6839 47.8015 18.5658 49.2809 18.5128C51.2639 18.4477 51.8349 16.5201 51.8012 15.525C51.7217 13.1975 49.2665 11.7253 46.0185 11.8337L45.9896 11.8386Z" fill="white"/>
</g>
<defs>
<clipPath id="clip0_7_22">
<rect width="64" height="64" fill="white"/>
</clipPath>
</defs>
</svg>
