<svg width="25" height="24" viewBox="0 0 25 24" fill="none" xmlns="http://www.w3.org/2000/svg"><path d="M24.268 19.734H22.02V16.22c0-1.163-.985-2.11-2.197-2.11h-6.592v-1.406h5.127c1.212 0 2.198-.946 2.198-2.11V2.11C20.557.946 19.57 0 18.359 0H6.641C5.429 0 4.443.946 4.443 2.11v8.484c0 1.163.986 2.11 2.198 2.11h5.127v1.405H5.176c-1.212 0-2.197.947-2.197 2.11v3.515H.732c-.404 0-.732.315-.732.703v2.86c0 .388.328.703.732.703h5.909c.404 0 .732-.315.732-.703v-2.86c0-.388-.328-.703-.732-.703H4.443V16.22c0-.388.329-.703.733-.703h6.592v4.218H9.57c-.404 0-.732.315-.732.703v2.86c0 .388.328.703.732.703h5.86c.404 0 .732-.315.732-.703v-2.86c0-.388-.328-.703-.732-.703h-2.198v-4.218h6.592c.404 0 .733.315.733.703v3.515h-2.198c-.404 0-.732.315-.732.703v2.86c0 .388.328.703.732.703h5.909c.404 0 .732-.315.732-.703v-2.86c0-.388-.328-.703-.732-.703zm-18.36 1.407v1.453H1.465V21.14h4.443zM17.627 1.406h.732c.404 0 .733.316.733.703v.704h-1.465V1.405zM5.908 2.11c0-.387.329-.703.733-.703h9.521v1.407H5.908V2.11zm8.79 19.032v1.453h-4.395V21.14h4.394zM6.64 11.297c-.404 0-.733-.316-.733-.703V4.219h13.184v6.375c0 .388-.329.703-.733.703H6.641zm16.894 11.297h-4.443V21.14h4.443v1.453z" fill="#fff"/></svg>