<svg width="24" height="24" viewBox="0 0 24 24" fill="none" xmlns="http://www.w3.org/2000/svg"><path d="M21.89 0H2.11C.945 0 0 .946 0 2.11v12.703c0 1.163.946 2.109 2.11 2.109h6.64l.714 1.453h-.277a3.52 3.52 0 00-3.515 3.516c0 .388.315.703.703.703h6.45A2.113 2.113 0 0014.812 24h7.078c1.164 0 2.11-.946 2.11-2.11V2.11C24 .946 23.054 0 21.89 0zm-9.187 21.188H7.2a2.113 2.113 0 011.989-1.407h3.515v1.407zm0-2.813h-1.671l-.715-1.453h2.386v1.453zm0-2.86H2.11a.704.704 0 01-.703-.703v-.703h11.297v1.407zm9.89 6.376a.704.704 0 01-.702.703h-7.078a.704.704 0 01-.704-.703v-.703h8.485v.703zm0-2.11H14.11v-7.078h8.485v7.078zm0-8.484H14.11v-.703c0-.388.316-.703.704-.703h7.078c.387 0 .703.315.703.703v.703zm0-2.692a2.1 2.1 0 00-.702-.12h-7.078c-1.164 0-2.11.946-2.11 2.109v2.11H1.406V2.108c0-.387.316-.703.703-.703h19.782c.387 0 .703.316.703.703v6.496z" fill="#FFA800"/><path d="M11.099 4.48L9.693 3.027a.703.703 0 10-1.01.978l.252.26h-5.42a.703.703 0 000 1.407h5.381l-.206.206a.703.703 0 10.995.994l1.406-1.406a.705.705 0 00.008-.986zm-.505 4.004H5.213l.206-.206a.703.703 0 10-.994-.994L3.018 8.69a.705.705 0 000 .995l1.407 1.406a.703.703 0 10.994-.994l-.206-.206h5.38a.703.703 0 000-1.407z" fill="#FFA800"/></svg>