<svg width="27" height="27" viewBox="0 0 27 27" fill="none" xmlns="http://www.w3.org/2000/svg"><circle cx="13.5" cy="13.5" r="13" fill="#584625" stroke="#FFA800"/><path d="M18.897 7.584a1.994 1.994 0 00-2.82 0L8.17 15.49a.443.443 0 00-.114.195l-1.04 3.754a.443.443 0 00.545.545l3.754-1.04a.439.439 0 00.195-.114l7.907-7.906a1.997 1.997 0 000-2.82l-.52-.52zm-9.762 8.194l6.471-6.47 2.087 2.086-6.47 6.47-2.088-2.086zm-.417.836l1.668 1.668-2.307.639.64-2.306zm10.072-6.316l-.47.47-2.087-2.087.47-.47a1.108 1.108 0 011.567 0l.52.52a1.11 1.11 0 010 1.567z" fill="#FFA800"/></svg>