<svg width="24" height="24" viewBox="0 0 24 24" fill="none" xmlns="http://www.w3.org/2000/svg"><path d="M21.89 0H2.11C.945 0 0 .946 0 2.11v14.156c0 1.163.946 2.109 2.11 2.109h6.643l.703 1.406h-.268a3.52 3.52 0 00-3.516 3.516c0 .388.315.703.703.703h11.25a.703.703 0 00.703-.703 3.52 3.52 0 00-3.515-3.516h-.27l.704-1.406h6.644A2.111 2.111 0 0024 16.265V2.11C24 .946 23.054 0 21.89 0zm-7.078 21.188c.917 0 1.7.587 1.99 1.406H7.198a2.113 2.113 0 011.989-1.407h5.624zm-4.487-2.813h3.35l-.703 1.406h-1.944l-.703-1.406zm12.269-2.11a.704.704 0 01-.703.704H2.109a.704.704 0 01-.703-.703v-.703h21.188v.703zm0-2.109H1.406V2.11c0-.387.316-.703.703-.703h19.782c.387 0 .703.316.703.703v12.047z" fill="#FFA800"/><path d="M7.781 4.266h-2.86a.703.703 0 00-.702.703V7.78c0 .389.315.703.703.703h2.86a.703.703 0 00.702-.703V4.97a.703.703 0 00-.703-.703zm-.703 2.812H5.625V5.672h1.453v1.406zm6.328-2.812h-2.812a.703.703 0 00-.703.703V7.78c0 .389.314.703.703.703h2.812a.703.703 0 00.703-.703V4.97a.703.703 0 00-.703-.703zm-.703 2.812h-1.406V5.672h1.406v1.406zm6.328-2.812H16.22a.703.703 0 00-.703.703V7.78c0 .389.314.703.703.703h2.812a.703.703 0 00.703-.703V4.97a.703.703 0 00-.703-.703zm-.703 2.812h-1.406V5.672h1.406v1.406zM7.781 9.89h-2.86a.703.703 0 000 1.407h2.86a.703.703 0 000-1.406zm5.625 0h-2.812a.703.703 0 100 1.407h2.812a.703.703 0 100-1.406zm5.625 0H16.22a.703.703 0 100 1.407h2.812a.703.703 0 100-1.406z" fill="#FFA800"/></svg>