<svg width="27" height="27" viewBox="0 0 27 27" fill="none" xmlns="http://www.w3.org/2000/svg"><circle cx="13.5" cy="13.5" r="13" fill="#584625" stroke="#FFA800"/><path d="M9.216 17.677l-.859-.882v2.276a.057.057 0 11-.114 0v-2.6c0-.031.025-.057.057-.057h2.6a.057.057 0 110 .115H8.355l.72.828a5.85 5.85 0 004.425 2.029 5.886 5.886 0 005.886-5.881l.008-.022a.067.067 0 01.022-.032.042.042 0 01.027-.008.04.04 0 01.025.008.07.07 0 01.025.034l.007.02a6 6 0 01-6 5.995 5.954 5.954 0 01-4.284-1.823zm8.334-7.206h1.099l-.722-.828A5.857 5.857 0 0013.5 7.614a5.881 5.881 0 00-5.863 5.448l-.03.084a.067.067 0 01-.023.031.042.042 0 01-.027.009.043.043 0 01-.026-.009.066.066 0 01-.016-.018l-.002-.013a.664.664 0 00-.006-.035v-.002l.024-.063.006-.067C7.802 9.911 10.365 7.5 13.5 7.5c1.68 0 3.197.694 4.285 1.81l.858.881V7.93a.057.057 0 11.114 0v2.6a.057.057 0 01-.057.057h-2.6a.057.057 0 110-.115h1.45z" fill="#FFA800" stroke="#FFA800"/></svg>