<svg width="24" height="24" viewBox="0 0 24 24" fill="none" xmlns="http://www.w3.org/2000/svg"><path d="M21.89 0H2.11C.945 0 0 .946 0 2.11v19.78C0 23.055.946 24 2.11 24h19.78c1.164 0 2.11-.946 2.11-2.11V2.11C24 .945 23.054 0 21.89 0zM1.407 2.11c0-.388.316-.704.703-.704h14.86v4.219H1.406V2.109zm21.188 19.78a.704.704 0 01-.703.704H2.109a.704.704 0 01-.703-.703V7.03h21.188v14.86zm0-16.265h-4.219V1.406h3.516c.387 0 .703.316.703.703v3.516z" fill="#FFA800"/><path d="M4.922 2.813H3.516a.703.703 0 000 1.406h1.406a.703.703 0 000-1.407zm4.266 0H7.78a.703.703 0 000 1.406h1.407a.703.703 0 000-1.407zm4.218 0H12a.703.703 0 000 1.406h1.406a.703.703 0 100-1.407zm7.078 16.968h-.703v-9.187a.703.703 0 00-.703-.703h-2.812a.703.703 0 00-.703.703v9.187h-1.454v-6.375a.703.703 0 00-.703-.703h-2.812a.703.703 0 00-.703.703v6.375H8.484V16.22a.703.703 0 00-.703-.703h-2.86a.703.703 0 00-.702.703v3.562h-.703a.703.703 0 000 1.407h16.968a.703.703 0 000-1.407zm-13.406 0H5.625v-2.86h1.453v2.86zm5.625 0h-1.406V14.11h1.406v5.672zm5.672 0h-1.406v-8.484h1.406v8.484z" fill="#FFA800"/></svg>