<svg width="104" height="16" viewBox="0 0 104 16" fill="none" xmlns="http://www.w3.org/2000/svg">
<path d="M1 12C0.6875 12 0.440104 11.9089 0.257812 11.7266C0.0807292 11.5391 -0.0078125 11.2812 -0.0078125 10.9531V1.77344C-0.0078125 1.44531 0.0807292 1.1901 0.257812 1.00781C0.440104 0.820312 0.6875 0.726562 1 0.726562H6.49219C6.76823 0.726562 6.98958 0.804688 7.15625 0.960938C7.32812 1.11198 7.41406 1.31771 7.41406 1.57812C7.41406 1.83854 7.32812 2.04688 7.15625 2.20312C6.98958 2.35417 6.76823 2.42969 6.49219 2.42969H2.00781V5.47656H6.25781C6.51823 5.47656 6.72656 5.54948 6.88281 5.69531C7.04427 5.83594 7.125 6.02865 7.125 6.27344C7.125 6.51823 7.04688 6.71354 6.89062 6.85938C6.73438 7.00521 6.52344 7.07812 6.25781 7.07812H2.00781V10.2969H6.49219C6.76823 10.2969 6.98958 10.375 7.15625 10.5312C7.32812 10.6823 7.41406 10.888 7.41406 11.1484C7.41406 11.4089 7.32812 11.6172 7.15625 11.7734C6.98958 11.9245 6.76823 12 6.49219 12H1ZM9.47656 12.1562C9.21615 12.1562 9 12.0807 8.82812 11.9297C8.66146 11.7786 8.57812 11.5859 8.57812 11.3516C8.57812 11.237 8.59635 11.1302 8.63281 11.0312C8.67448 10.9323 8.73698 10.8255 8.82031 10.7109L10.9219 7.86719L8.85156 5.00781C8.71094 4.8151 8.64062 4.61198 8.64062 4.39844C8.64062 4.15885 8.72917 3.95833 8.90625 3.79688C9.08854 3.63542 9.3125 3.55469 9.57812 3.55469C9.77083 3.55469 9.92448 3.59375 10.0391 3.67188C10.1589 3.75 10.2812 3.88542 10.4062 4.07812L12.1328 6.625H12.1719L13.8594 4.09375C13.9896 3.90104 14.112 3.76302 14.2266 3.67969C14.3464 3.59635 14.4922 3.55469 14.6641 3.55469C14.9401 3.55469 15.1641 3.63281 15.3359 3.78906C15.5078 3.9401 15.5938 4.13802 15.5938 4.38281C15.5938 4.4974 15.5729 4.60677 15.5312 4.71094C15.4948 4.8151 15.4349 4.92188 15.3516 5.03125L13.2891 7.8125L15.3594 10.7031C15.5 10.901 15.5703 11.099 15.5703 11.2969C15.5703 11.5521 15.4792 11.7604 15.2969 11.9219C15.1198 12.0781 14.901 12.1562 14.6406 12.1562C14.4583 12.1562 14.3099 12.1172 14.1953 12.0391C14.0807 11.9661 13.9714 11.8516 13.8672 11.6953L12.0781 9.03125H12.0391L10.2578 11.6641C10.1328 11.8516 10.013 11.9792 9.89844 12.0469C9.78385 12.1198 9.64323 12.1562 9.47656 12.1562ZM20.3906 12.1641C19.5833 12.1641 18.8802 11.9922 18.2812 11.6484C17.6875 11.2995 17.2266 10.8047 16.8984 10.1641C16.5703 9.51823 16.4062 8.7526 16.4062 7.86719C16.4062 6.98698 16.5677 6.22396 16.8906 5.57812C17.2188 4.93229 17.6797 4.43229 18.2734 4.07812C18.8724 3.72396 19.5729 3.54688 20.375 3.54688C20.9167 3.54688 21.4219 3.63281 21.8906 3.80469C22.3594 3.97656 22.7578 4.21354 23.0859 4.51562C23.4141 4.81771 23.6458 5.16146 23.7812 5.54688C23.849 5.71354 23.8828 5.86979 23.8828 6.01562C23.8828 6.25521 23.8021 6.44531 23.6406 6.58594C23.4792 6.72656 23.2812 6.79688 23.0469 6.79688C22.8542 6.79688 22.6927 6.75521 22.5625 6.67188C22.4323 6.58333 22.3099 6.4401 22.1953 6.24219C21.9922 5.86198 21.7474 5.58073 21.4609 5.39844C21.1745 5.21615 20.8307 5.125 20.4297 5.125C19.8047 5.125 19.3073 5.36979 18.9375 5.85938C18.5677 6.34375 18.3828 7.01042 18.3828 7.85938C18.3828 8.71875 18.5677 9.39062 18.9375 9.875C19.3073 10.3542 19.8021 10.5938 20.4219 10.5938C20.8542 10.5938 21.2083 10.5 21.4844 10.3125C21.7656 10.125 22 9.86458 22.1875 9.53125C22.3229 9.3125 22.4531 9.15885 22.5781 9.07031C22.7083 8.97656 22.8776 8.92969 23.0859 8.92969C23.3203 8.92969 23.5156 9.0026 23.6719 9.14844C23.8281 9.28906 23.9062 9.48177 23.9062 9.72656C23.9062 9.80469 23.8958 9.88542 23.875 9.96875C23.8594 10.0469 23.8307 10.1328 23.7891 10.2266C23.6328 10.6068 23.3854 10.9427 23.0469 11.2344C22.7135 11.526 22.3177 11.7552 21.8594 11.9219C21.401 12.0833 20.9115 12.1641 20.3906 12.1641ZM26.25 12.1562C25.9635 12.1562 25.7292 12.0677 25.5469 11.8906C25.3646 11.7135 25.2734 11.4609 25.2734 11.1328V1.57031C25.2734 1.25781 25.3594 1.01302 25.5312 0.835938C25.7031 0.658854 25.9375 0.570312 26.2344 0.570312C26.5365 0.570312 26.7708 0.658854 26.9375 0.835938C27.1094 1.01302 27.1953 1.25781 27.1953 1.57031V5.14062H27.2344C27.4583 4.64062 27.7917 4.2526 28.2344 3.97656C28.6823 3.70052 29.2214 3.5625 29.8516 3.5625C30.7682 3.5625 31.4792 3.84375 31.9844 4.40625C32.4948 4.96354 32.75 5.71615 32.75 6.66406V11.1328C32.75 11.4609 32.6589 11.7135 32.4766 11.8906C32.2943 12.0677 32.0599 12.1562 31.7734 12.1562C31.4922 12.1562 31.2604 12.0677 31.0781 11.8906C30.8958 11.7135 30.8047 11.4609 30.8047 11.1328V7.0625C30.8047 6.48438 30.6615 6.03125 30.375 5.70312C30.0885 5.375 29.6641 5.21094 29.1016 5.21094C28.7109 5.21094 28.375 5.29688 28.0938 5.46875C27.8125 5.63542 27.5964 5.8724 27.4453 6.17969C27.2943 6.48177 27.2188 6.83594 27.2188 7.24219V11.1328C27.2188 11.4609 27.1276 11.7135 26.9453 11.8906C26.763 12.0677 26.5312 12.1562 26.25 12.1562ZM36.7422 12.1328C36.2109 12.1328 35.737 12.0286 35.3203 11.8203C34.9036 11.612 34.5755 11.3203 34.3359 10.9453C34.0964 10.5651 33.9766 10.1276 33.9766 9.63281C33.9766 8.89323 34.25 8.3099 34.7969 7.88281C35.3438 7.45573 36.1198 7.21354 37.125 7.15625L39.3203 7.03125V6.4375C39.3203 6.00521 39.1823 5.66927 38.9062 5.42969C38.6302 5.1901 38.2526 5.07031 37.7734 5.07031C37.3932 5.07031 37.0703 5.14323 36.8047 5.28906C36.5391 5.4349 36.2839 5.6849 36.0391 6.03906C35.8359 6.29948 35.5729 6.42969 35.25 6.42969C35.0104 6.42969 34.8125 6.35938 34.6562 6.21875C34.5052 6.07292 34.4297 5.88281 34.4297 5.64844C34.4297 5.47135 34.474 5.29427 34.5625 5.11719C34.7708 4.63802 35.1719 4.25781 35.7656 3.97656C36.3646 3.6901 37.0599 3.54688 37.8516 3.54688C38.5391 3.54688 39.1354 3.66146 39.6406 3.89062C40.151 4.11458 40.5443 4.43229 40.8203 4.84375C41.1016 5.25521 41.2422 5.73958 41.2422 6.29688V11.1797C41.2422 11.4922 41.1536 11.7344 40.9766 11.9062C40.7995 12.0729 40.5729 12.1562 40.2969 12.1562C40.0312 12.1562 39.8125 12.0781 39.6406 11.9219C39.474 11.7656 39.3828 11.5443 39.3672 11.2578C39.3672 11.1641 39.3672 11.0677 39.3672 10.9688C39.3672 10.8698 39.3672 10.7734 39.3672 10.6797H39.3281C39.1667 10.9766 38.9505 11.2344 38.6797 11.4531C38.4141 11.6719 38.1146 11.8411 37.7812 11.9609C37.4479 12.0755 37.1016 12.1328 36.7422 12.1328ZM37.3359 10.6641C37.7005 10.6641 38.0312 10.5885 38.3281 10.4375C38.6302 10.2865 38.8698 10.0807 39.0469 9.82031C39.2292 9.55469 39.3203 9.25781 39.3203 8.92969V8.29688L37.3984 8.41406C36.9297 8.44531 36.5651 8.5625 36.3047 8.76562C36.0495 8.96354 35.9219 9.22656 35.9219 9.55469C35.9219 9.89323 36.0495 10.1641 36.3047 10.3672C36.5651 10.5651 36.9089 10.6641 37.3359 10.6641ZM43.7812 12.1562C43.5 12.1562 43.2682 12.0677 43.0859 11.8906C42.9036 11.7135 42.8125 11.4609 42.8125 11.1328V4.53906C42.8125 4.23698 42.8958 3.9974 43.0625 3.82031C43.2292 3.64323 43.4557 3.55469 43.7422 3.55469C44.0286 3.55469 44.2604 3.64323 44.4375 3.82031C44.6146 3.9974 44.7031 4.23698 44.7031 4.53906V5.11719H44.7422C44.9661 4.6276 45.2917 4.2474 45.7188 3.97656C46.1458 3.70052 46.6797 3.5625 47.3203 3.5625C47.9297 3.5625 48.4479 3.6875 48.875 3.9375C49.3021 4.18229 49.6276 4.53646 49.8516 5C50.0755 5.45833 50.1875 6.00781 50.1875 6.64844V11.1328C50.1875 11.4609 50.0964 11.7135 49.9141 11.8906C49.7318 12.0677 49.5 12.1562 49.2188 12.1562C48.9323 12.1562 48.6979 12.0677 48.5156 11.8906C48.3333 11.7135 48.2422 11.4609 48.2422 11.1328V7.03906C48.2422 6.45573 48.1042 6.00521 47.8281 5.6875C47.5521 5.36979 47.138 5.21094 46.5859 5.21094C46.2161 5.21094 45.8932 5.29427 45.6172 5.46094C45.3411 5.6276 45.1276 5.86198 44.9766 6.16406C44.8307 6.46094 44.7578 6.80729 44.7578 7.20312V11.1328C44.7578 11.4609 44.6667 11.7135 44.4844 11.8906C44.3021 12.0677 44.0677 12.1562 43.7812 12.1562ZM55.3203 15.1172C54.5286 15.112 53.8411 14.9688 53.2578 14.6875C52.6745 14.4115 52.2422 14.0521 51.9609 13.6094C51.9036 13.5104 51.862 13.4115 51.8359 13.3125C51.8099 13.2188 51.7969 13.1224 51.7969 13.0234C51.7969 12.8099 51.8698 12.6302 52.0156 12.4844C52.1667 12.3438 52.3646 12.2734 52.6094 12.2734C52.8594 12.2734 53.0964 12.3828 53.3203 12.6016C53.6432 12.9245 53.9609 13.1641 54.2734 13.3203C54.5911 13.4818 54.9453 13.5651 55.3359 13.5703C55.9974 13.5807 56.513 13.4167 56.8828 13.0781C57.2578 12.7396 57.4453 12.2943 57.4453 11.7422V10.4219H57.4062C57.2656 10.7188 57.0651 10.9792 56.8047 11.2031C56.5495 11.4271 56.2526 11.6016 55.9141 11.7266C55.5807 11.8516 55.2135 11.9141 54.8125 11.9141C54.125 11.9141 53.5234 11.7448 53.0078 11.4062C52.4974 11.0677 52.1016 10.5885 51.8203 9.96875C51.5443 9.34375 51.4062 8.60677 51.4062 7.75781C51.4062 6.89323 51.5443 6.14844 51.8203 5.52344C52.0964 4.89844 52.4922 4.41927 53.0078 4.08594C53.5286 3.7474 54.1432 3.57812 54.8516 3.57812C55.2474 3.57812 55.6094 3.64323 55.9375 3.77344C56.2656 3.89844 56.5547 4.07812 56.8047 4.3125C57.0599 4.54167 57.2656 4.8125 57.4219 5.125H57.4531V4.54688C57.4531 4.22396 57.5469 3.97917 57.7344 3.8125C57.9219 3.64062 58.1536 3.55469 58.4297 3.55469C58.7161 3.55469 58.9479 3.64062 59.125 3.8125C59.3073 3.97917 59.3984 4.22396 59.3984 4.54688V11.7344C59.3984 12.4323 59.2344 13.0339 58.9062 13.5391C58.5833 14.0495 58.1172 14.4401 57.5078 14.7109C56.9036 14.987 56.1745 15.1224 55.3203 15.1172ZM55.4062 10.3984C55.8229 10.3984 56.1849 10.2917 56.4922 10.0781C56.7995 9.86458 57.0365 9.5625 57.2031 9.17188C57.375 8.77604 57.4609 8.3099 57.4609 7.77344C57.4609 7.23698 57.375 6.77083 57.2031 6.375C57.0365 5.97396 56.7995 5.66406 56.4922 5.44531C56.1849 5.22656 55.8229 5.11719 55.4062 5.11719C55 5.11719 54.6458 5.22656 54.3438 5.44531C54.0417 5.65885 53.8073 5.96615 53.6406 6.36719C53.4792 6.76302 53.3984 7.23177 53.3984 7.77344C53.3984 8.3151 53.4792 8.78385 53.6406 9.17969C53.8073 9.57031 54.0417 9.8724 54.3438 10.0859C54.6458 10.2943 55 10.3984 55.4062 10.3984ZM64.6641 12.1641C63.3984 12.1641 62.4115 11.7891 61.7031 11.0391C60.9948 10.2839 60.6406 9.23438 60.6406 7.89062C60.6406 7.01042 60.7995 6.24479 61.1172 5.59375C61.4401 4.94271 61.8958 4.4401 62.4844 4.08594C63.0729 3.72656 63.763 3.54688 64.5547 3.54688C65.3099 3.54688 65.974 3.71354 66.5469 4.04688C67.1198 4.375 67.5651 4.82812 67.8828 5.40625C68.2057 5.98438 68.3672 6.65104 68.3672 7.40625C68.3672 7.69792 68.2891 7.92448 68.1328 8.08594C67.9766 8.2474 67.7526 8.32812 67.4609 8.32812H62.5781C62.5781 8.33854 62.5781 8.34896 62.5781 8.35938C62.5781 8.36979 62.5781 8.38021 62.5781 8.39062C62.5781 9.08333 62.7656 9.63542 63.1406 10.0469C63.5156 10.4583 64.0182 10.6641 64.6484 10.6641C65.0859 10.6641 65.4609 10.5807 65.7734 10.4141C66.0911 10.2422 66.4062 9.95833 66.7188 9.5625C66.8177 9.44792 66.9167 9.36719 67.0156 9.32031C67.1198 9.27344 67.2396 9.25 67.375 9.25C67.5938 9.25 67.7786 9.31771 67.9297 9.45312C68.0807 9.58333 68.1562 9.76562 68.1562 10C68.1562 10.1458 68.112 10.3099 68.0234 10.4922C67.7526 11.0234 67.3229 11.4349 66.7344 11.7266C66.1458 12.0182 65.4557 12.1641 64.6641 12.1641ZM62.5938 7.04688H66.4609C66.4505 6.64583 66.362 6.29688 66.1953 6C66.0286 5.69792 65.8047 5.46615 65.5234 5.30469C65.2474 5.13802 64.9271 5.05469 64.5625 5.05469C64.1979 5.05469 63.8724 5.13802 63.5859 5.30469C63.2995 5.47135 63.0703 5.70573 62.8984 6.00781C62.7266 6.30469 62.625 6.65104 62.5938 7.04688ZM70.9844 12.0859C70.6667 12.0859 70.3984 11.9766 70.1797 11.7578C69.9661 11.5391 69.8594 11.2734 69.8594 10.9609C69.8594 10.6484 69.9661 10.3828 70.1797 10.1641C70.3984 9.94531 70.6667 9.83594 70.9844 9.83594C71.2969 9.83594 71.5599 9.94531 71.7734 10.1641C71.9922 10.3828 72.1016 10.6484 72.1016 10.9609C72.1016 11.2734 71.9922 11.5391 71.7734 11.7578C71.5599 11.9766 71.2969 12.0859 70.9844 12.0859ZM74.9062 12.1562C74.6146 12.1562 74.3802 12.0677 74.2031 11.8906C74.026 11.7083 73.9375 11.4557 73.9375 11.1328V4.54688C73.9375 4.22917 74.0234 3.98438 74.1953 3.8125C74.3724 3.64062 74.5964 3.55469 74.8672 3.55469C75.1432 3.55469 75.3672 3.64062 75.5391 3.8125C75.7161 3.98438 75.8047 4.22917 75.8047 4.54688V5.15625H75.8438C76.026 4.67708 76.3229 4.29167 76.7344 4C77.151 3.70833 77.6406 3.5625 78.2031 3.5625C78.5938 3.5625 78.9427 3.63021 79.25 3.76562C79.5625 3.89583 79.8255 4.08333 80.0391 4.32812C80.2578 4.57292 80.4167 4.8724 80.5156 5.22656H80.5625C80.6927 4.88281 80.8828 4.58854 81.1328 4.34375C81.388 4.09375 81.6849 3.90104 82.0234 3.76562C82.3672 3.63021 82.7396 3.5625 83.1406 3.5625C83.6823 3.5625 84.1562 3.67708 84.5625 3.90625C84.9688 4.13542 85.2839 4.45833 85.5078 4.875C85.7318 5.28646 85.8438 5.76823 85.8438 6.32031V11.1328C85.8438 11.4557 85.7526 11.7083 85.5703 11.8906C85.3932 12.0677 85.1615 12.1562 84.875 12.1562C84.5833 12.1562 84.3464 12.0677 84.1641 11.8906C83.987 11.7083 83.8984 11.4557 83.8984 11.1328V6.79688C83.8984 6.28646 83.7708 5.89323 83.5156 5.61719C83.2604 5.34115 82.8932 5.20312 82.4141 5.20312C81.9453 5.20312 81.5651 5.35938 81.2734 5.67188C80.9818 5.98438 80.8359 6.38802 80.8359 6.88281V11.1328C80.8359 11.4557 80.75 11.7083 80.5781 11.8906C80.4115 12.0677 80.1823 12.1562 79.8906 12.1562C79.599 12.1562 79.3672 12.0677 79.1953 11.8906C79.0286 11.7083 78.9453 11.4557 78.9453 11.1328V6.69531C78.9453 6.23177 78.8125 5.86719 78.5469 5.60156C78.2865 5.33594 77.9297 5.20312 77.4766 5.20312C77.0078 5.20312 76.625 5.36719 76.3281 5.69531C76.0312 6.01823 75.8828 6.42969 75.8828 6.92969V11.1328C75.8828 11.4557 75.7917 11.7083 75.6094 11.8906C75.4323 12.0677 75.1979 12.1562 74.9062 12.1562ZM89.8359 12.1328C89.3047 12.1328 88.8307 12.0286 88.4141 11.8203C87.9974 11.612 87.6693 11.3203 87.4297 10.9453C87.1901 10.5651 87.0703 10.1276 87.0703 9.63281C87.0703 8.89323 87.3438 8.3099 87.8906 7.88281C88.4375 7.45573 89.2135 7.21354 90.2188 7.15625L92.4141 7.03125V6.4375C92.4141 6.00521 92.276 5.66927 92 5.42969C91.724 5.1901 91.3464 5.07031 90.8672 5.07031C90.487 5.07031 90.1641 5.14323 89.8984 5.28906C89.6328 5.4349 89.3776 5.6849 89.1328 6.03906C88.9297 6.29948 88.6667 6.42969 88.3438 6.42969C88.1042 6.42969 87.9062 6.35938 87.75 6.21875C87.599 6.07292 87.5234 5.88281 87.5234 5.64844C87.5234 5.47135 87.5677 5.29427 87.6562 5.11719C87.8646 4.63802 88.2656 4.25781 88.8594 3.97656C89.4583 3.6901 90.1536 3.54688 90.9453 3.54688C91.6328 3.54688 92.2292 3.66146 92.7344 3.89062C93.2448 4.11458 93.638 4.43229 93.9141 4.84375C94.1953 5.25521 94.3359 5.73958 94.3359 6.29688V11.1797C94.3359 11.4922 94.2474 11.7344 94.0703 11.9062C93.8932 12.0729 93.6667 12.1562 93.3906 12.1562C93.125 12.1562 92.9062 12.0781 92.7344 11.9219C92.5677 11.7656 92.4766 11.5443 92.4609 11.2578C92.4609 11.1641 92.4609 11.0677 92.4609 10.9688C92.4609 10.8698 92.4609 10.7734 92.4609 10.6797H92.4219C92.2604 10.9766 92.0443 11.2344 91.7734 11.4531C91.5078 11.6719 91.2083 11.8411 90.875 11.9609C90.5417 12.0755 90.1953 12.1328 89.8359 12.1328ZM90.4297 10.6641C90.7943 10.6641 91.125 10.5885 91.4219 10.4375C91.724 10.2865 91.9635 10.0807 92.1406 9.82031C92.3229 9.55469 92.4141 9.25781 92.4141 8.92969V8.29688L90.4922 8.41406C90.0234 8.44531 89.6589 8.5625 89.3984 8.76562C89.1432 8.96354 89.0156 9.22656 89.0156 9.55469C89.0156 9.89323 89.1432 10.1641 89.3984 10.3672C89.6589 10.5651 90.0026 10.6641 90.4297 10.6641ZM96.875 14.9453C96.5938 14.9453 96.362 14.8568 96.1797 14.6797C95.9974 14.5026 95.9062 14.25 95.9062 13.9219V4.55469C95.9062 4.23698 95.9922 3.99219 96.1641 3.82031C96.3411 3.64323 96.5703 3.55469 96.8516 3.55469C97.1328 3.55469 97.362 3.64323 97.5391 3.82031C97.7161 3.99219 97.8047 4.23698 97.8047 4.55469V5.14844H97.8438C98 4.82552 98.2057 4.54688 98.4609 4.3125C98.7161 4.07812 99.0104 3.89844 99.3438 3.77344C99.6823 3.64323 100.052 3.57812 100.453 3.57812C101.151 3.57812 101.758 3.7526 102.273 4.10156C102.789 4.44531 103.188 4.9375 103.469 5.57812C103.75 6.21354 103.891 6.97396 103.891 7.85938C103.891 8.73958 103.75 9.5 103.469 10.1406C103.193 10.7812 102.799 11.2734 102.289 11.6172C101.779 11.9609 101.177 12.1328 100.484 12.1328C100.089 12.1328 99.7214 12.0729 99.3828 11.9531C99.0443 11.8281 98.7474 11.6536 98.4922 11.4297C98.2422 11.2005 98.0417 10.9323 97.8906 10.625H97.8516V13.9219C97.8516 14.25 97.7604 14.5026 97.5781 14.6797C97.3958 14.8568 97.1615 14.9453 96.875 14.9453ZM99.8594 10.5391C100.281 10.5391 100.643 10.4297 100.945 10.2109C101.253 9.99219 101.487 9.68229 101.648 9.28125C101.815 8.88021 101.898 8.40625 101.898 7.85938C101.898 7.3125 101.815 6.84115 101.648 6.44531C101.487 6.04427 101.253 5.73438 100.945 5.51562C100.643 5.29167 100.281 5.17969 99.8594 5.17969C99.4583 5.17969 99.1042 5.29167 98.7969 5.51562C98.4948 5.73438 98.2604 6.04688 98.0938 6.45312C97.9271 6.85417 97.8411 7.32292 97.8359 7.85938C97.8411 8.40104 97.9271 8.8724 98.0938 9.27344C98.2604 9.67448 98.4948 9.98698 98.7969 10.2109C99.1042 10.4297 99.4583 10.5391 99.8594 10.5391Z" fill="white"/>
</svg>
